<svg xmlns="http://www.w3.org/2000/svg" width="216" height="198" viewBox="0 0 216 198">
<rect x="0" y="0" width="216" height="198" fill="#000000"/>
<style>text{font-family:ui-monospace, 'SF Mono', 'Cascadia Code', 'DejaVu Sans Mono', monospace;font-size:15px}</style>
<defs>
<pattern id="dither1-0000aa" width="2" height="2" patternUnits="userSpaceOnUse">
<rect x="0" y="0" width="1" height="1" fill="#0000aa" shape-rendering="crispEdges"/>
</pattern>
</defs>
<rect x="0" y="0" width="216" height="144" fill="#c8c8c8"/>
<rect x="0" y="144" width="216" height="54" fill="#00aaaa"/>
<rect x="0" y="0" width="216" height="90" fill="url(#dither1-0000aa)"/>
<text x="0" y="104" xml:space="preserve" fill="#ffffff">[</text>
<text x="9" y="104" xml:space="preserve" fill="#00aa00" font-weight="bold">■</text>
<text x="18" y="104" xml:space="preserve" fill="#ffffff">]</text>
<g data-box-drawing="double">
<path d="M 26.5 99 L 31.5 99 L 36.5 99" fill="none" stroke="#ffffff" stroke-width="6" stroke-linecap="butt" stroke-linejoin="miter"/>
<path d="M 26.5 99 L 31.5 99 L 36.5 99" fill="none" stroke="#c8c8c8" stroke-width="2" stroke-linecap="butt" stroke-linejoin="miter"/>
</g>
<g data-box-drawing="double">
<path d="M 35.5 99 L 40.5 99 L 45.5 99" fill="none" stroke="#ffffff" stroke-width="6" stroke-linecap="butt" stroke-linejoin="miter"/>
<path d="M 35.5 99 L 40.5 99 L 45.5 99" fill="none" stroke="#c8c8c8" stroke-width="2" stroke-linecap="butt" stroke-linejoin="miter"/>
</g>
<g data-box-drawing="double">
<path d="M 44.5 99 L 49.5 99 L 54.5 99" fill="none" stroke="#ffffff" stroke-width="6" stroke-linecap="butt" stroke-linejoin="miter"/>
<path d="M 44.5 99 L 49.5 99 L 54.5 99" fill="none" stroke="#c8c8c8" stroke-width="2" stroke-linecap="butt" stroke-linejoin="miter"/>
</g>
<g data-box-drawing="double">
<path d="M 53.5 99 L 58.5 99 L 63.5 99" fill="none" stroke="#ffffff" stroke-width="6" stroke-linecap="butt" stroke-linejoin="miter"/>
<path d="M 53.5 99 L 58.5 99 L 63.5 99" fill="none" stroke="#c8c8c8" stroke-width="2" stroke-linecap="butt" stroke-linejoin="miter"/>
</g>
<g data-box-drawing="double">
<path d="M 62.5 99 L 67.5 99 L 72.5 99" fill="none" stroke="#ffffff" stroke-width="6" stroke-linecap="butt" stroke-linejoin="miter"/>
<path d="M 62.5 99 L 67.5 99 L 72.5 99" fill="none" stroke="#c8c8c8" stroke-width="2" stroke-linecap="butt" stroke-linejoin="miter"/>
</g>
<g data-box-drawing="double">
<path d="M 71.5 99 L 76.5 99 L 81.5 99" fill="none" stroke="#ffffff" stroke-width="6" stroke-linecap="butt" stroke-linejoin="miter"/>
<path d="M 71.5 99 L 76.5 99 L 81.5 99" fill="none" stroke="#c8c8c8" stroke-width="2" stroke-linecap="butt" stroke-linejoin="miter"/>
</g>
<g data-box-drawing="double">
<path d="M 80.5 99 L 85.5 99 L 90.5 99" fill="none" stroke="#ffffff" stroke-width="6" stroke-linecap="butt" stroke-linejoin="miter"/>
<path d="M 80.5 99 L 85.5 99 L 90.5 99" fill="none" stroke="#c8c8c8" stroke-width="2" stroke-linecap="butt" stroke-linejoin="miter"/>
</g>
<g data-box-drawing="double">
<path d="M 89.5 99 L 94.5 99 L 99.5 99" fill="none" stroke="#ffffff" stroke-width="6" stroke-linecap="butt" stroke-linejoin="miter"/>
<path d="M 89.5 99 L 94.5 99 L 99.5 99" fill="none" stroke="#c8c8c8" stroke-width="2" stroke-linecap="butt" stroke-linejoin="miter"/>
</g>
<g data-box-drawing="double">
<path d="M 98.5 99 L 103.5 99 L 108.5 99" fill="none" stroke="#ffffff" stroke-width="6" stroke-linecap="butt" stroke-linejoin="miter"/>
<path d="M 98.5 99 L 103.5 99 L 108.5 99" fill="none" stroke="#c8c8c8" stroke-width="2" stroke-linecap="butt" stroke-linejoin="miter"/>
</g>
<text x="117" y="104" xml:space="preserve" fill="#ffffff">B</text>
<text x="126" y="104" xml:space="preserve" fill="#ffffff">u</text>
<text x="135" y="104" xml:space="preserve" fill="#ffffff">i</text>
<text x="144" y="104" xml:space="preserve" fill="#ffffff">l</text>
<text x="153" y="104" xml:space="preserve" fill="#ffffff">d</text>
<text x="171" y="104" xml:space="preserve" fill="#ffffff">o</text>
<text x="180" y="104" xml:space="preserve" fill="#ffffff">p</text>
<text x="189" y="104" xml:space="preserve" fill="#ffffff">t</text>
<text x="198" y="104" xml:space="preserve" fill="#ffffff">i</text>
<text x="207" y="104" xml:space="preserve" fill="#ffffff">o</text>
<text x="0" y="140" xml:space="preserve" fill="#000000">C</text>
<text x="9" y="140" xml:space="preserve" fill="#000000">o</text>
<text x="18" y="140" xml:space="preserve" fill="#000000">m</text>
<text x="27" y="140" xml:space="preserve" fill="#000000">p</text>
<text x="36" y="140" xml:space="preserve" fill="#000000">i</text>
<text x="45" y="140" xml:space="preserve" fill="#000000">l</text>
<text x="54" y="140" xml:space="preserve" fill="#000000">a</text>
<text x="63" y="140" xml:space="preserve" fill="#000000">t</text>
<text x="72" y="140" xml:space="preserve" fill="#000000">i</text>
<text x="81" y="140" xml:space="preserve" fill="#000000">o</text>
<text x="90" y="140" xml:space="preserve" fill="#000000">n</text>
<text x="9" y="158" xml:space="preserve" fill="#000000">[</text>
<text x="18" y="158" xml:space="preserve" fill="#000000">X</text>
<text x="27" y="158" xml:space="preserve" fill="#000000">]</text>
<text x="45" y="158" xml:space="preserve" fill="#ffff55">O</text>
<text x="54" y="158" xml:space="preserve" fill="#000000">p</text>
<text x="63" y="158" xml:space="preserve" fill="#000000">t</text>
<text x="72" y="158" xml:space="preserve" fill="#000000">i</text>
<text x="81" y="158" xml:space="preserve" fill="#000000">m</text>
<text x="90" y="158" xml:space="preserve" fill="#000000">i</text>
<text x="99" y="158" xml:space="preserve" fill="#000000">z</text>
<text x="108" y="158" xml:space="preserve" fill="#000000">e</text>
<text x="9" y="176" xml:space="preserve" fill="#000000">[</text>
<text x="27" y="176" xml:space="preserve" fill="#000000">]</text>
<text x="45" y="176" xml:space="preserve" fill="#ffff55">D</text>
<text x="54" y="176" xml:space="preserve" fill="#000000">e</text>
<text x="63" y="176" xml:space="preserve" fill="#000000">b</text>
<text x="72" y="176" xml:space="preserve" fill="#000000">u</text>
<text x="81" y="176" xml:space="preserve" fill="#000000">g</text>
<text x="99" y="176" xml:space="preserve" fill="#000000">i</text>
<text x="108" y="176" xml:space="preserve" fill="#000000">n</text>
<text x="117" y="176" xml:space="preserve" fill="#000000">f</text>
<text x="126" y="176" xml:space="preserve" fill="#000000">o</text>
<text x="9" y="194" xml:space="preserve" fill="#000000">[</text>
<text x="18" y="194" xml:space="preserve" fill="#000000">~</text>
<text x="27" y="194" xml:space="preserve" fill="#000000">]</text>
<text x="45" y="194" xml:space="preserve" fill="#000000">W</text>
<text x="54" y="194" xml:space="preserve" fill="#000000">a</text>
<text x="63" y="194" xml:space="preserve" fill="#000000">r</text>
<text x="72" y="194" xml:space="preserve" fill="#000000">n</text>
<text x="81" y="194" xml:space="preserve" fill="#000000">i</text>
<text x="90" y="194" xml:space="preserve" fill="#000000">n</text>
<text x="99" y="194" xml:space="preserve" fill="#000000">g</text>
<text x="108" y="194" xml:space="preserve" fill="#000000">s</text>
<text x="126" y="194" xml:space="preserve" fill="#000000">a</text>
<text x="135" y="194" xml:space="preserve" fill="#000000">s</text>
<text x="153" y="194" xml:space="preserve" fill="#000000">e</text>
<text x="162" y="194" xml:space="preserve" fill="#000000">r</text>
<text x="171" y="194" xml:space="preserve" fill="#000000">r</text>
<text x="180" y="194" xml:space="preserve" fill="#000000">o</text>
<text x="189" y="194" xml:space="preserve" fill="#000000">r</text>
<text x="198" y="194" xml:space="preserve" fill="#000000">s</text>
<g id="raster-plane">
</g>
</svg>
