<svg xmlns="http://www.w3.org/2000/svg" width="315" height="288" viewBox="0 0 315 288">
<rect x="0" y="0" width="315" height="288" fill="#000000"/>
<style>text{font-family:ui-monospace, 'SF Mono', 'Cascadia Code', 'DejaVu Sans Mono', monospace;font-size:15px}</style>
<defs>
<pattern id="dither1-0000aa" width="2" height="2" patternUnits="userSpaceOnUse">
<rect x="0" y="0" width="1" height="1" fill="#0000aa" shape-rendering="crispEdges"/>
</pattern>
<pattern id="dither1-000055" width="2" height="2" patternUnits="userSpaceOnUse">
<rect x="0" y="0" width="1" height="1" fill="#000055" shape-rendering="crispEdges"/>
</pattern>
</defs>
<rect x="0" y="0" width="315" height="36" fill="#c8c8c8"/>
<rect x="0" y="36" width="297" height="18" fill="#c8c8c8"/>
<rect x="297" y="36" width="18" height="234" fill="#646464"/>
<rect x="0" y="54" width="27" height="234" fill="#c8c8c8"/>
<rect x="27" y="54" width="252" height="54" fill="#ffffff"/>
<rect x="279" y="54" width="18" height="198" fill="#c8c8c8"/>
<rect x="27" y="108" width="189" height="36" fill="#ffffff"/>
<rect x="216" y="108" width="18" height="18" fill="#0000aa"/>
<rect x="234" y="108" width="45" height="108" fill="#ffffff"/>
<rect x="216" y="126" width="18" height="90" fill="#ffffff"/>
<rect x="27" y="144" width="81" height="18" fill="#ffffff"/>
<rect x="108" y="144" width="18" height="18" fill="#00aa00"/>
<rect x="126" y="144" width="90" height="18" fill="#ffffff"/>
<rect x="27" y="162" width="27" height="54" fill="#ffffff"/>
<rect x="54" y="162" width="18" height="18" fill="#00aaaa"/>
<rect x="72" y="162" width="9" height="54" fill="#ffffff"/>
<rect x="81" y="162" width="18" height="18" fill="#00aaaa"/>
<rect x="99" y="162" width="9" height="54" fill="#ffffff"/>
<rect x="108" y="162" width="18" height="18" fill="#00aaaa"/>
<rect x="126" y="162" width="9" height="54" fill="#ffffff"/>
<rect x="135" y="162" width="18" height="18" fill="#00aaaa"/>
<rect x="153" y="162" width="9" height="54" fill="#ffffff"/>
<rect x="162" y="162" width="18" height="18" fill="#00aaaa"/>
<rect x="180" y="162" width="36" height="54" fill="#ffffff"/>
<rect x="54" y="180" width="18" height="36" fill="#ffffff"/>
<rect x="81" y="180" width="18" height="36" fill="#ffffff"/>
<rect x="108" y="180" width="18" height="36" fill="#ffffff"/>
<rect x="135" y="180" width="18" height="36" fill="#ffffff"/>
<rect x="162" y="180" width="18" height="36" fill="#ffffff"/>
<rect x="27" y="216" width="252" height="36" fill="#c8c8c8"/>
<rect x="27" y="252" width="270" height="18" fill="#646464"/>
<rect x="27" y="270" width="288" height="18" fill="#c8c8c8"/>
<rect x="0" y="0" width="315" height="18" fill="url(#dither1-0000aa)"/>
<rect x="0" y="18" width="9" height="270" fill="url(#dither1-0000aa)"/>
<rect x="297" y="18" width="18" height="18" fill="url(#dither1-0000aa)"/>
<rect x="297" y="36" width="18" height="234" fill="url(#dither1-000055)"/>
<rect x="9" y="252" width="18" height="36" fill="url(#dither1-0000aa)"/>
<rect x="27" y="252" width="270" height="18" fill="url(#dither1-000055)"/>
<rect x="27" y="270" width="288" height="18" fill="url(#dither1-0000aa)"/>
<g data-box-drawing="double">
<path d="M 13.5 36.5 L 13.5 27 L 18.5 27" fill="none" stroke="#ffffff" stroke-width="6" stroke-linecap="butt" stroke-linejoin="miter"/>
<path d="M 13.5 36.5 L 13.5 27 L 18.5 27" fill="none" stroke="#c8c8c8" stroke-width="2" stroke-linecap="butt" stroke-linejoin="miter"/>
</g>
<g data-box-drawing="double">
<path d="M 17.5 27 L 22.5 27 L 27.5 27" fill="none" stroke="#ffffff" stroke-width="6" stroke-linecap="butt" stroke-linejoin="miter"/>
<path d="M 17.5 27 L 22.5 27 L 27.5 27" fill="none" stroke="#c8c8c8" stroke-width="2" stroke-linecap="butt" stroke-linejoin="miter"/>
</g>
<text x="27" y="32" xml:space="preserve" fill="#ffffff">[</text>
<text x="36" y="32" xml:space="preserve" fill="#00aa00" font-weight="bold">■</text>
<text x="45" y="32" xml:space="preserve" fill="#ffffff">]</text>
<g data-box-drawing="double">
<path d="M 53.5 27 L 58.5 27 L 63.5 27" fill="none" stroke="#ffffff" stroke-width="6" stroke-linecap="butt" stroke-linejoin="miter"/>
<path d="M 53.5 27 L 58.5 27 L 63.5 27" fill="none" stroke="#c8c8c8" stroke-width="2" stroke-linecap="butt" stroke-linejoin="miter"/>
</g>
<g data-box-drawing="double">
<path d="M 62.5 27 L 67.5 27 L 72.5 27" fill="none" stroke="#ffffff" stroke-width="6" stroke-linecap="butt" stroke-linejoin="miter"/>
<path d="M 62.5 27 L 67.5 27 L 72.5 27" fill="none" stroke="#c8c8c8" stroke-width="2" stroke-linecap="butt" stroke-linejoin="miter"/>
</g>
<g data-box-drawing="double">
<path d="M 71.5 27 L 76.5 27 L 81.5 27" fill="none" stroke="#ffffff" stroke-width="6" stroke-linecap="butt" stroke-linejoin="miter"/>
<path d="M 71.5 27 L 76.5 27 L 81.5 27" fill="none" stroke="#c8c8c8" stroke-width="2" stroke-linecap="butt" stroke-linejoin="miter"/>
</g>
<g data-box-drawing="double">
<path d="M 80.5 27 L 85.5 27 L 90.5 27" fill="none" stroke="#ffffff" stroke-width="6" stroke-linecap="butt" stroke-linejoin="miter"/>
<path d="M 80.5 27 L 85.5 27 L 90.5 27" fill="none" stroke="#c8c8c8" stroke-width="2" stroke-linecap="butt" stroke-linejoin="miter"/>
</g>
<g data-box-drawing="double">
<path d="M 89.5 27 L 94.5 27 L 99.5 27" fill="none" stroke="#ffffff" stroke-width="6" stroke-linecap="butt" stroke-linejoin="miter"/>
<path d="M 89.5 27 L 94.5 27 L 99.5 27" fill="none" stroke="#c8c8c8" stroke-width="2" stroke-linecap="butt" stroke-linejoin="miter"/>
</g>
<g data-box-drawing="double">
<path d="M 98.5 27 L 103.5 27 L 108.5 27" fill="none" stroke="#ffffff" stroke-width="6" stroke-linecap="butt" stroke-linejoin="miter"/>
<path d="M 98.5 27 L 103.5 27 L 108.5 27" fill="none" stroke="#c8c8c8" stroke-width="2" stroke-linecap="butt" stroke-linejoin="miter"/>
</g>
<text x="117" y="32" xml:space="preserve" fill="#ffffff">S</text>
<text x="126" y="32" xml:space="preserve" fill="#ffffff">c</text>
<text x="135" y="32" xml:space="preserve" fill="#ffffff">h</text>
<text x="144" y="32" xml:space="preserve" fill="#ffffff">e</text>
<text x="153" y="32" xml:space="preserve" fill="#ffffff">d</text>
<text x="162" y="32" xml:space="preserve" fill="#ffffff">u</text>
<text x="171" y="32" xml:space="preserve" fill="#ffffff">l</text>
<text x="180" y="32" xml:space="preserve" fill="#ffffff">e</text>
<g data-box-drawing="double">
<path d="M 197.5 27 L 202.5 27 L 207.5 27" fill="none" stroke="#ffffff" stroke-width="6" stroke-linecap="butt" stroke-linejoin="miter"/>
<path d="M 197.5 27 L 202.5 27 L 207.5 27" fill="none" stroke="#c8c8c8" stroke-width="2" stroke-linecap="butt" stroke-linejoin="miter"/>
</g>
<g data-box-drawing="double">
<path d="M 206.5 27 L 211.5 27 L 216.5 27" fill="none" stroke="#ffffff" stroke-width="6" stroke-linecap="butt" stroke-linejoin="miter"/>
<path d="M 206.5 27 L 211.5 27 L 216.5 27" fill="none" stroke="#c8c8c8" stroke-width="2" stroke-linecap="butt" stroke-linejoin="miter"/>
</g>
<g data-box-drawing="double">
<path d="M 215.5 27 L 220.5 27 L 225.5 27" fill="none" stroke="#ffffff" stroke-width="6" stroke-linecap="butt" stroke-linejoin="miter"/>
<path d="M 215.5 27 L 220.5 27 L 225.5 27" fill="none" stroke="#c8c8c8" stroke-width="2" stroke-linecap="butt" stroke-linejoin="miter"/>
</g>
<text x="225" y="32" xml:space="preserve" fill="#ffffff">[</text>
<text x="234" y="32" xml:space="preserve" fill="#00aa00" font-weight="bold">_</text>
<text x="243" y="32" xml:space="preserve" fill="#ffffff">]</text>
<text x="252" y="32" xml:space="preserve" fill="#ffffff">[</text>
<text x="261" y="32" xml:space="preserve" fill="#00aa00" font-weight="bold">↑</text>
<text x="270" y="32" xml:space="preserve" fill="#ffffff">]</text>
<g data-box-drawing="double">
<path d="M 278.5 27 L 283.5 27 L 288.5 27" fill="none" stroke="#ffffff" stroke-width="6" stroke-linecap="butt" stroke-linejoin="miter"/>
<path d="M 278.5 27 L 283.5 27 L 288.5 27" fill="none" stroke="#c8c8c8" stroke-width="2" stroke-linecap="butt" stroke-linejoin="miter"/>
</g>
<g data-box-drawing="double">
<path d="M 292.5 36.5 L 292.5 27 L 287.5 27" fill="none" stroke="#ffffff" stroke-width="6" stroke-linecap="butt" stroke-linejoin="miter"/>
<path d="M 292.5 36.5 L 292.5 27 L 287.5 27" fill="none" stroke="#c8c8c8" stroke-width="2" stroke-linecap="butt" stroke-linejoin="miter"/>
</g>
<g data-box-drawing="double">
<path d="M 13.5 35.5 L 13.5 45 L 13.5 54.5" fill="none" stroke="#ffffff" stroke-width="6" stroke-linecap="butt" stroke-linejoin="miter"/>
<path d="M 13.5 35.5 L 13.5 45 L 13.5 54.5" fill="none" stroke="#c8c8c8" stroke-width="2" stroke-linecap="butt" stroke-linejoin="miter"/>
</g>
<g data-box-drawing="double">
<path d="M 292.5 35.5 L 292.5 45 L 292.5 54.5" fill="none" stroke="#ffffff" stroke-width="6" stroke-linecap="butt" stroke-linejoin="miter"/>
<path d="M 292.5 35.5 L 292.5 45 L 292.5 54.5" fill="none" stroke="#c8c8c8" stroke-width="2" stroke-linecap="butt" stroke-linejoin="miter"/>
</g>
<g data-box-drawing="double">
<path d="M 13.5 53.5 L 13.5 63 L 13.5 72.5" fill="none" stroke="#ffffff" stroke-width="6" stroke-linecap="butt" stroke-linejoin="miter"/>
<path d="M 13.5 53.5 L 13.5 63 L 13.5 72.5" fill="none" stroke="#c8c8c8" stroke-width="2" stroke-linecap="butt" stroke-linejoin="miter"/>
</g>
<text x="27" y="68" xml:space="preserve" fill="#000000">A</text>
<text x="36" y="68" xml:space="preserve" fill="#000000">u</text>
<text x="45" y="68" xml:space="preserve" fill="#000000">g</text>
<text x="54" y="68" xml:space="preserve" fill="#000000">u</text>
<text x="63" y="68" xml:space="preserve" fill="#000000">s</text>
<text x="72" y="68" xml:space="preserve" fill="#000000">t</text>
<text x="90" y="68" xml:space="preserve" fill="#000000">2</text>
<text x="99" y="68" xml:space="preserve" fill="#000000">0</text>
<text x="108" y="68" xml:space="preserve" fill="#000000">2</text>
<text x="117" y="68" xml:space="preserve" fill="#000000">6</text>
<g data-box-drawing="double">
<path d="M 292.5 53.5 L 292.5 63 L 292.5 72.5" fill="none" stroke="#ffffff" stroke-width="6" stroke-linecap="butt" stroke-linejoin="miter"/>
<path d="M 292.5 53.5 L 292.5 63 L 292.5 72.5" fill="none" stroke="#c8c8c8" stroke-width="2" stroke-linecap="butt" stroke-linejoin="miter"/>
</g>
<g data-box-drawing="double">
<path d="M 13.5 71.5 L 13.5 81 L 13.5 90.5" fill="none" stroke="#ffffff" stroke-width="6" stroke-linecap="butt" stroke-linejoin="miter"/>
<path d="M 13.5 71.5 L 13.5 81 L 13.5 90.5" fill="none" stroke="#c8c8c8" stroke-width="2" stroke-linecap="butt" stroke-linejoin="miter"/>
</g>
<text x="27" y="86" xml:space="preserve" fill="#000000" font-weight="bold">W</text>
<text x="36" y="86" xml:space="preserve" fill="#000000" font-weight="bold">k</text>
<text x="54" y="86" xml:space="preserve" fill="#000000" font-weight="bold">M</text>
<text x="63" y="86" xml:space="preserve" fill="#000000" font-weight="bold">o</text>
<text x="81" y="86" xml:space="preserve" fill="#000000" font-weight="bold">T</text>
<text x="90" y="86" xml:space="preserve" fill="#000000" font-weight="bold">u</text>
<text x="108" y="86" xml:space="preserve" fill="#000000" font-weight="bold">W</text>
<text x="117" y="86" xml:space="preserve" fill="#000000" font-weight="bold">e</text>
<text x="135" y="86" xml:space="preserve" fill="#000000" font-weight="bold">T</text>
<text x="144" y="86" xml:space="preserve" fill="#000000" font-weight="bold">h</text>
<text x="162" y="86" xml:space="preserve" fill="#000000" font-weight="bold">F</text>
<text x="171" y="86" xml:space="preserve" fill="#000000" font-weight="bold">r</text>
<text x="189" y="86" xml:space="preserve" fill="#000000" font-weight="bold">S</text>
<text x="198" y="86" xml:space="preserve" fill="#000000" font-weight="bold">a</text>
<text x="216" y="86" xml:space="preserve" fill="#000000" font-weight="bold">S</text>
<text x="225" y="86" xml:space="preserve" fill="#000000" font-weight="bold">u</text>
<g data-box-drawing="double">
<path d="M 292.5 71.5 L 292.5 81 L 292.5 90.5" fill="none" stroke="#ffffff" stroke-width="6" stroke-linecap="butt" stroke-linejoin="miter"/>
<path d="M 292.5 71.5 L 292.5 81 L 292.5 90.5" fill="none" stroke="#c8c8c8" stroke-width="2" stroke-linecap="butt" stroke-linejoin="miter"/>
</g>
<g data-box-drawing="double">
<path d="M 13.5 89.5 L 13.5 99 L 13.5 108.5" fill="none" stroke="#ffffff" stroke-width="6" stroke-linecap="butt" stroke-linejoin="miter"/>
<path d="M 13.5 89.5 L 13.5 99 L 13.5 108.5" fill="none" stroke="#c8c8c8" stroke-width="2" stroke-linecap="butt" stroke-linejoin="miter"/>
</g>
<text x="198" y="104" xml:space="preserve" fill="#000000">1</text>
<text x="225" y="104" xml:space="preserve" fill="#000000">2</text>
<g data-box-drawing="double">
<path d="M 292.5 89.5 L 292.5 99 L 292.5 108.5" fill="none" stroke="#ffffff" stroke-width="6" stroke-linecap="butt" stroke-linejoin="miter"/>
<path d="M 292.5 89.5 L 292.5 99 L 292.5 108.5" fill="none" stroke="#c8c8c8" stroke-width="2" stroke-linecap="butt" stroke-linejoin="miter"/>
</g>
<g data-box-drawing="double">
<path d="M 13.5 107.5 L 13.5 117 L 13.5 126.5" fill="none" stroke="#ffffff" stroke-width="6" stroke-linecap="butt" stroke-linejoin="miter"/>
<path d="M 13.5 107.5 L 13.5 117 L 13.5 126.5" fill="none" stroke="#c8c8c8" stroke-width="2" stroke-linecap="butt" stroke-linejoin="miter"/>
</g>
<text x="63" y="122" xml:space="preserve" fill="#000000">3</text>
<text x="90" y="122" xml:space="preserve" fill="#000000">4</text>
<text x="117" y="122" xml:space="preserve" fill="#000000">5</text>
<text x="144" y="122" xml:space="preserve" fill="#000000">6</text>
<text x="171" y="122" xml:space="preserve" fill="#000000">7</text>
<text x="198" y="122" xml:space="preserve" fill="#000000">8</text>
<text x="225" y="122" xml:space="preserve" fill="#ffff55" font-weight="bold">9</text>
<g data-box-drawing="double">
<path d="M 292.5 107.5 L 292.5 117 L 292.5 126.5" fill="none" stroke="#ffffff" stroke-width="6" stroke-linecap="butt" stroke-linejoin="miter"/>
<path d="M 292.5 107.5 L 292.5 117 L 292.5 126.5" fill="none" stroke="#c8c8c8" stroke-width="2" stroke-linecap="butt" stroke-linejoin="miter"/>
</g>
<g data-box-drawing="double">
<path d="M 13.5 125.5 L 13.5 135 L 13.5 144.5" fill="none" stroke="#ffffff" stroke-width="6" stroke-linecap="butt" stroke-linejoin="miter"/>
<path d="M 13.5 125.5 L 13.5 135 L 13.5 144.5" fill="none" stroke="#c8c8c8" stroke-width="2" stroke-linecap="butt" stroke-linejoin="miter"/>
</g>
<text x="54" y="140" xml:space="preserve" fill="#000000">1</text>
<text x="63" y="140" xml:space="preserve" fill="#000000">0</text>
<text x="81" y="140" xml:space="preserve" fill="#000000">1</text>
<text x="90" y="140" xml:space="preserve" fill="#000000">1</text>
<text x="108" y="140" xml:space="preserve" fill="#000000">1</text>
<text x="117" y="140" xml:space="preserve" fill="#000000">2</text>
<text x="135" y="140" xml:space="preserve" fill="#000000">1</text>
<text x="144" y="140" xml:space="preserve" fill="#000000">3</text>
<text x="162" y="140" xml:space="preserve" fill="#000000">1</text>
<text x="171" y="140" xml:space="preserve" fill="#000000">4</text>
<text x="189" y="140" xml:space="preserve" fill="#000000">1</text>
<text x="198" y="140" xml:space="preserve" fill="#000000">5</text>
<text x="216" y="140" xml:space="preserve" fill="#000000">1</text>
<text x="225" y="140" xml:space="preserve" fill="#000000">6</text>
<g data-box-drawing="double">
<path d="M 292.5 125.5 L 292.5 135 L 292.5 144.5" fill="none" stroke="#ffffff" stroke-width="6" stroke-linecap="butt" stroke-linejoin="miter"/>
<path d="M 292.5 125.5 L 292.5 135 L 292.5 144.5" fill="none" stroke="#c8c8c8" stroke-width="2" stroke-linecap="butt" stroke-linejoin="miter"/>
</g>
<g data-box-drawing="double">
<path d="M 13.5 143.5 L 13.5 153 L 13.5 162.5" fill="none" stroke="#ffffff" stroke-width="6" stroke-linecap="butt" stroke-linejoin="miter"/>
<path d="M 13.5 143.5 L 13.5 153 L 13.5 162.5" fill="none" stroke="#c8c8c8" stroke-width="2" stroke-linecap="butt" stroke-linejoin="miter"/>
</g>
<text x="54" y="158" xml:space="preserve" fill="#000000">1</text>
<text x="63" y="158" xml:space="preserve" fill="#000000">7</text>
<text x="81" y="158" xml:space="preserve" fill="#000000">1</text>
<text x="90" y="158" xml:space="preserve" fill="#000000">8</text>
<text x="108" y="158" xml:space="preserve" fill="#000000">1</text>
<text x="117" y="158" xml:space="preserve" fill="#000000">9</text>
<text x="135" y="158" xml:space="preserve" fill="#000000">2</text>
<text x="144" y="158" xml:space="preserve" fill="#000000">0</text>
<text x="162" y="158" xml:space="preserve" fill="#000000">2</text>
<text x="171" y="158" xml:space="preserve" fill="#000000">1</text>
<text x="189" y="158" xml:space="preserve" fill="#000000">2</text>
<text x="198" y="158" xml:space="preserve" fill="#000000">2</text>
<text x="216" y="158" xml:space="preserve" fill="#000000">2</text>
<text x="225" y="158" xml:space="preserve" fill="#000000">3</text>
<g data-box-drawing="double">
<path d="M 292.5 143.5 L 292.5 153 L 292.5 162.5" fill="none" stroke="#ffffff" stroke-width="6" stroke-linecap="butt" stroke-linejoin="miter"/>
<path d="M 292.5 143.5 L 292.5 153 L 292.5 162.5" fill="none" stroke="#c8c8c8" stroke-width="2" stroke-linecap="butt" stroke-linejoin="miter"/>
</g>
<g data-box-drawing="double">
<path d="M 13.5 161.5 L 13.5 171 L 13.5 180.5" fill="none" stroke="#ffffff" stroke-width="6" stroke-linecap="butt" stroke-linejoin="miter"/>
<path d="M 13.5 161.5 L 13.5 171 L 13.5 180.5" fill="none" stroke="#c8c8c8" stroke-width="2" stroke-linecap="butt" stroke-linejoin="miter"/>
</g>
<text x="54" y="176" xml:space="preserve" fill="#000000">2</text>
<text x="63" y="176" xml:space="preserve" fill="#000000">4</text>
<text x="81" y="176" xml:space="preserve" fill="#000000">2</text>
<text x="90" y="176" xml:space="preserve" fill="#000000">5</text>
<text x="108" y="176" xml:space="preserve" fill="#000000">2</text>
<text x="117" y="176" xml:space="preserve" fill="#000000">6</text>
<text x="135" y="176" xml:space="preserve" fill="#000000">2</text>
<text x="144" y="176" xml:space="preserve" fill="#000000">7</text>
<text x="162" y="176" xml:space="preserve" fill="#000000">2</text>
<text x="171" y="176" xml:space="preserve" fill="#000000">8</text>
<text x="189" y="176" xml:space="preserve" fill="#000000">2</text>
<text x="198" y="176" xml:space="preserve" fill="#000000">9</text>
<text x="216" y="176" xml:space="preserve" fill="#000000">3</text>
<text x="225" y="176" xml:space="preserve" fill="#000000">0</text>
<g data-box-drawing="double">
<path d="M 292.5 161.5 L 292.5 171 L 292.5 180.5" fill="none" stroke="#ffffff" stroke-width="6" stroke-linecap="butt" stroke-linejoin="miter"/>
<path d="M 292.5 161.5 L 292.5 171 L 292.5 180.5" fill="none" stroke="#c8c8c8" stroke-width="2" stroke-linecap="butt" stroke-linejoin="miter"/>
</g>
<g data-box-drawing="double">
<path d="M 13.5 179.5 L 13.5 189 L 13.5 198.5" fill="none" stroke="#ffffff" stroke-width="6" stroke-linecap="butt" stroke-linejoin="miter"/>
<path d="M 13.5 179.5 L 13.5 189 L 13.5 198.5" fill="none" stroke="#c8c8c8" stroke-width="2" stroke-linecap="butt" stroke-linejoin="miter"/>
</g>
<text x="54" y="194" xml:space="preserve" fill="#000000">3</text>
<text x="63" y="194" xml:space="preserve" fill="#000000">1</text>
<g data-box-drawing="double">
<path d="M 292.5 179.5 L 292.5 189 L 292.5 198.5" fill="none" stroke="#ffffff" stroke-width="6" stroke-linecap="butt" stroke-linejoin="miter"/>
<path d="M 292.5 179.5 L 292.5 189 L 292.5 198.5" fill="none" stroke="#c8c8c8" stroke-width="2" stroke-linecap="butt" stroke-linejoin="miter"/>
</g>
<g data-box-drawing="double">
<path d="M 13.5 197.5 L 13.5 207 L 13.5 216.5" fill="none" stroke="#ffffff" stroke-width="6" stroke-linecap="butt" stroke-linejoin="miter"/>
<path d="M 13.5 197.5 L 13.5 207 L 13.5 216.5" fill="none" stroke="#c8c8c8" stroke-width="2" stroke-linecap="butt" stroke-linejoin="miter"/>
</g>
<g data-box-drawing="double">
<path d="M 292.5 197.5 L 292.5 207 L 292.5 216.5" fill="none" stroke="#ffffff" stroke-width="6" stroke-linecap="butt" stroke-linejoin="miter"/>
<path d="M 292.5 197.5 L 292.5 207 L 292.5 216.5" fill="none" stroke="#c8c8c8" stroke-width="2" stroke-linecap="butt" stroke-linejoin="miter"/>
</g>
<g data-box-drawing="double">
<path d="M 13.5 215.5 L 13.5 225 L 13.5 234.5" fill="none" stroke="#ffffff" stroke-width="6" stroke-linecap="butt" stroke-linejoin="miter"/>
<path d="M 13.5 215.5 L 13.5 225 L 13.5 234.5" fill="none" stroke="#c8c8c8" stroke-width="2" stroke-linecap="butt" stroke-linejoin="miter"/>
</g>
<g data-box-drawing="double">
<path d="M 292.5 215.5 L 292.5 225 L 292.5 234.5" fill="none" stroke="#ffffff" stroke-width="6" stroke-linecap="butt" stroke-linejoin="miter"/>
<path d="M 292.5 215.5 L 292.5 225 L 292.5 234.5" fill="none" stroke="#c8c8c8" stroke-width="2" stroke-linecap="butt" stroke-linejoin="miter"/>
</g>
<g data-box-drawing="double">
<path d="M 13.5 233.5 L 13.5 243 L 18.5 243" fill="none" stroke="#ffffff" stroke-width="6" stroke-linecap="butt" stroke-linejoin="miter"/>
<path d="M 13.5 233.5 L 13.5 243 L 18.5 243" fill="none" stroke="#c8c8c8" stroke-width="2" stroke-linecap="butt" stroke-linejoin="miter"/>
</g>
<g data-box-drawing="double">
<path d="M 17.5 243 L 22.5 243 L 27.5 243" fill="none" stroke="#ffffff" stroke-width="6" stroke-linecap="butt" stroke-linejoin="miter"/>
<path d="M 17.5 243 L 22.5 243 L 27.5 243" fill="none" stroke="#c8c8c8" stroke-width="2" stroke-linecap="butt" stroke-linejoin="miter"/>
</g>
<g data-box-drawing="double">
<path d="M 26.5 243 L 31.5 243 L 36.5 243" fill="none" stroke="#ffffff" stroke-width="6" stroke-linecap="butt" stroke-linejoin="miter"/>
<path d="M 26.5 243 L 31.5 243 L 36.5 243" fill="none" stroke="#c8c8c8" stroke-width="2" stroke-linecap="butt" stroke-linejoin="miter"/>
</g>
<g data-box-drawing="double">
<path d="M 35.5 243 L 40.5 243 L 45.5 243" fill="none" stroke="#ffffff" stroke-width="6" stroke-linecap="butt" stroke-linejoin="miter"/>
<path d="M 35.5 243 L 40.5 243 L 45.5 243" fill="none" stroke="#c8c8c8" stroke-width="2" stroke-linecap="butt" stroke-linejoin="miter"/>
</g>
<g data-box-drawing="double">
<path d="M 44.5 243 L 49.5 243 L 54.5 243" fill="none" stroke="#ffffff" stroke-width="6" stroke-linecap="butt" stroke-linejoin="miter"/>
<path d="M 44.5 243 L 49.5 243 L 54.5 243" fill="none" stroke="#c8c8c8" stroke-width="2" stroke-linecap="butt" stroke-linejoin="miter"/>
</g>
<g data-box-drawing="double">
<path d="M 53.5 243 L 58.5 243 L 63.5 243" fill="none" stroke="#ffffff" stroke-width="6" stroke-linecap="butt" stroke-linejoin="miter"/>
<path d="M 53.5 243 L 58.5 243 L 63.5 243" fill="none" stroke="#c8c8c8" stroke-width="2" stroke-linecap="butt" stroke-linejoin="miter"/>
</g>
<g data-box-drawing="double">
<path d="M 62.5 243 L 67.5 243 L 72.5 243" fill="none" stroke="#ffffff" stroke-width="6" stroke-linecap="butt" stroke-linejoin="miter"/>
<path d="M 62.5 243 L 67.5 243 L 72.5 243" fill="none" stroke="#c8c8c8" stroke-width="2" stroke-linecap="butt" stroke-linejoin="miter"/>
</g>
<g data-box-drawing="double">
<path d="M 71.5 243 L 76.5 243 L 81.5 243" fill="none" stroke="#ffffff" stroke-width="6" stroke-linecap="butt" stroke-linejoin="miter"/>
<path d="M 71.5 243 L 76.5 243 L 81.5 243" fill="none" stroke="#c8c8c8" stroke-width="2" stroke-linecap="butt" stroke-linejoin="miter"/>
</g>
<g data-box-drawing="double">
<path d="M 80.5 243 L 85.5 243 L 90.5 243" fill="none" stroke="#ffffff" stroke-width="6" stroke-linecap="butt" stroke-linejoin="miter"/>
<path d="M 80.5 243 L 85.5 243 L 90.5 243" fill="none" stroke="#c8c8c8" stroke-width="2" stroke-linecap="butt" stroke-linejoin="miter"/>
</g>
<g data-box-drawing="double">
<path d="M 89.5 243 L 94.5 243 L 99.5 243" fill="none" stroke="#ffffff" stroke-width="6" stroke-linecap="butt" stroke-linejoin="miter"/>
<path d="M 89.5 243 L 94.5 243 L 99.5 243" fill="none" stroke="#c8c8c8" stroke-width="2" stroke-linecap="butt" stroke-linejoin="miter"/>
</g>
<g data-box-drawing="double">
<path d="M 98.5 243 L 103.5 243 L 108.5 243" fill="none" stroke="#ffffff" stroke-width="6" stroke-linecap="butt" stroke-linejoin="miter"/>
<path d="M 98.5 243 L 103.5 243 L 108.5 243" fill="none" stroke="#c8c8c8" stroke-width="2" stroke-linecap="butt" stroke-linejoin="miter"/>
</g>
<g data-box-drawing="double">
<path d="M 107.5 243 L 112.5 243 L 117.5 243" fill="none" stroke="#ffffff" stroke-width="6" stroke-linecap="butt" stroke-linejoin="miter"/>
<path d="M 107.5 243 L 112.5 243 L 117.5 243" fill="none" stroke="#c8c8c8" stroke-width="2" stroke-linecap="butt" stroke-linejoin="miter"/>
</g>
<g data-box-drawing="double">
<path d="M 116.5 243 L 121.5 243 L 126.5 243" fill="none" stroke="#ffffff" stroke-width="6" stroke-linecap="butt" stroke-linejoin="miter"/>
<path d="M 116.5 243 L 121.5 243 L 126.5 243" fill="none" stroke="#c8c8c8" stroke-width="2" stroke-linecap="butt" stroke-linejoin="miter"/>
</g>
<g data-box-drawing="double">
<path d="M 125.5 243 L 130.5 243 L 135.5 243" fill="none" stroke="#ffffff" stroke-width="6" stroke-linecap="butt" stroke-linejoin="miter"/>
<path d="M 125.5 243 L 130.5 243 L 135.5 243" fill="none" stroke="#c8c8c8" stroke-width="2" stroke-linecap="butt" stroke-linejoin="miter"/>
</g>
<g data-box-drawing="double">
<path d="M 134.5 243 L 139.5 243 L 144.5 243" fill="none" stroke="#ffffff" stroke-width="6" stroke-linecap="butt" stroke-linejoin="miter"/>
<path d="M 134.5 243 L 139.5 243 L 144.5 243" fill="none" stroke="#c8c8c8" stroke-width="2" stroke-linecap="butt" stroke-linejoin="miter"/>
</g>
<g data-box-drawing="double">
<path d="M 143.5 243 L 148.5 243 L 153.5 243" fill="none" stroke="#ffffff" stroke-width="6" stroke-linecap="butt" stroke-linejoin="miter"/>
<path d="M 143.5 243 L 148.5 243 L 153.5 243" fill="none" stroke="#c8c8c8" stroke-width="2" stroke-linecap="butt" stroke-linejoin="miter"/>
</g>
<g data-box-drawing="double">
<path d="M 152.5 243 L 157.5 243 L 162.5 243" fill="none" stroke="#ffffff" stroke-width="6" stroke-linecap="butt" stroke-linejoin="miter"/>
<path d="M 152.5 243 L 157.5 243 L 162.5 243" fill="none" stroke="#c8c8c8" stroke-width="2" stroke-linecap="butt" stroke-linejoin="miter"/>
</g>
<g data-box-drawing="double">
<path d="M 161.5 243 L 166.5 243 L 171.5 243" fill="none" stroke="#ffffff" stroke-width="6" stroke-linecap="butt" stroke-linejoin="miter"/>
<path d="M 161.5 243 L 166.5 243 L 171.5 243" fill="none" stroke="#c8c8c8" stroke-width="2" stroke-linecap="butt" stroke-linejoin="miter"/>
</g>
<g data-box-drawing="double">
<path d="M 170.5 243 L 175.5 243 L 180.5 243" fill="none" stroke="#ffffff" stroke-width="6" stroke-linecap="butt" stroke-linejoin="miter"/>
<path d="M 170.5 243 L 175.5 243 L 180.5 243" fill="none" stroke="#c8c8c8" stroke-width="2" stroke-linecap="butt" stroke-linejoin="miter"/>
</g>
<g data-box-drawing="double">
<path d="M 179.5 243 L 184.5 243 L 189.5 243" fill="none" stroke="#ffffff" stroke-width="6" stroke-linecap="butt" stroke-linejoin="miter"/>
<path d="M 179.5 243 L 184.5 243 L 189.5 243" fill="none" stroke="#c8c8c8" stroke-width="2" stroke-linecap="butt" stroke-linejoin="miter"/>
</g>
<g data-box-drawing="double">
<path d="M 188.5 243 L 193.5 243 L 198.5 243" fill="none" stroke="#ffffff" stroke-width="6" stroke-linecap="butt" stroke-linejoin="miter"/>
<path d="M 188.5 243 L 193.5 243 L 198.5 243" fill="none" stroke="#c8c8c8" stroke-width="2" stroke-linecap="butt" stroke-linejoin="miter"/>
</g>
<g data-box-drawing="double">
<path d="M 197.5 243 L 202.5 243 L 207.5 243" fill="none" stroke="#ffffff" stroke-width="6" stroke-linecap="butt" stroke-linejoin="miter"/>
<path d="M 197.5 243 L 202.5 243 L 207.5 243" fill="none" stroke="#c8c8c8" stroke-width="2" stroke-linecap="butt" stroke-linejoin="miter"/>
</g>
<g data-box-drawing="double">
<path d="M 206.5 243 L 211.5 243 L 216.5 243" fill="none" stroke="#ffffff" stroke-width="6" stroke-linecap="butt" stroke-linejoin="miter"/>
<path d="M 206.5 243 L 211.5 243 L 216.5 243" fill="none" stroke="#c8c8c8" stroke-width="2" stroke-linecap="butt" stroke-linejoin="miter"/>
</g>
<g data-box-drawing="double">
<path d="M 215.5 243 L 220.5 243 L 225.5 243" fill="none" stroke="#ffffff" stroke-width="6" stroke-linecap="butt" stroke-linejoin="miter"/>
<path d="M 215.5 243 L 220.5 243 L 225.5 243" fill="none" stroke="#c8c8c8" stroke-width="2" stroke-linecap="butt" stroke-linejoin="miter"/>
</g>
<g data-box-drawing="double">
<path d="M 224.5 243 L 229.5 243 L 234.5 243" fill="none" stroke="#ffffff" stroke-width="6" stroke-linecap="butt" stroke-linejoin="miter"/>
<path d="M 224.5 243 L 229.5 243 L 234.5 243" fill="none" stroke="#c8c8c8" stroke-width="2" stroke-linecap="butt" stroke-linejoin="miter"/>
</g>
<g data-box-drawing="double">
<path d="M 233.5 243 L 238.5 243 L 243.5 243" fill="none" stroke="#ffffff" stroke-width="6" stroke-linecap="butt" stroke-linejoin="miter"/>
<path d="M 233.5 243 L 238.5 243 L 243.5 243" fill="none" stroke="#c8c8c8" stroke-width="2" stroke-linecap="butt" stroke-linejoin="miter"/>
</g>
<g data-box-drawing="double">
<path d="M 242.5 243 L 247.5 243 L 252.5 243" fill="none" stroke="#ffffff" stroke-width="6" stroke-linecap="butt" stroke-linejoin="miter"/>
<path d="M 242.5 243 L 247.5 243 L 252.5 243" fill="none" stroke="#c8c8c8" stroke-width="2" stroke-linecap="butt" stroke-linejoin="miter"/>
</g>
<g data-box-drawing="double">
<path d="M 251.5 243 L 256.5 243 L 261.5 243" fill="none" stroke="#ffffff" stroke-width="6" stroke-linecap="butt" stroke-linejoin="miter"/>
<path d="M 251.5 243 L 256.5 243 L 261.5 243" fill="none" stroke="#c8c8c8" stroke-width="2" stroke-linecap="butt" stroke-linejoin="miter"/>
</g>
<g data-box-drawing="double">
<path d="M 260.5 243 L 265.5 243 L 270.5 243" fill="none" stroke="#ffffff" stroke-width="6" stroke-linecap="butt" stroke-linejoin="miter"/>
<path d="M 260.5 243 L 265.5 243 L 270.5 243" fill="none" stroke="#c8c8c8" stroke-width="2" stroke-linecap="butt" stroke-linejoin="miter"/>
</g>
<g data-box-drawing="double">
<path d="M 269.5 243 L 274.5 243 L 279.5 243" fill="none" stroke="#ffffff" stroke-width="6" stroke-linecap="butt" stroke-linejoin="miter"/>
<path d="M 269.5 243 L 274.5 243 L 279.5 243" fill="none" stroke="#c8c8c8" stroke-width="2" stroke-linecap="butt" stroke-linejoin="miter"/>
</g>
<g data-box-drawing="single">
<path d="M 278.5 243 L 283.5 243 L 288.5 243" fill="none" stroke="#00aa00" stroke-width="3" stroke-linecap="butt" stroke-linejoin="miter"/>
</g>
<g data-box-drawing="single">
<path d="M 292.5 233.5 L 292.5 243 L 287.5 243" fill="none" stroke="#00aa00" stroke-width="3" stroke-linecap="butt" stroke-linejoin="miter"/>
</g>
<g id="raster-plane">
</g>
</svg>
