<svg xmlns="http://www.w3.org/2000/svg" width="423" height="144" viewBox="0 0 423 144">
<rect x="0" y="0" width="423" height="144" fill="#000000"/>
<style>text{font-family:ui-monospace, 'SF Mono', 'Cascadia Code', 'DejaVu Sans Mono', monospace;font-size:15px}</style>
<defs>
<pattern id="dither1-0000aa" width="2" height="2" patternUnits="userSpaceOnUse">
<rect x="0" y="0" width="1" height="1" fill="#0000aa" shape-rendering="crispEdges"/>
</pattern>
<pattern id="dither1-555555" width="2" height="2" patternUnits="userSpaceOnUse">
<rect x="0" y="0" width="1" height="1" fill="#555555" shape-rendering="crispEdges"/>
</pattern>
<pattern id="dither1-000000" width="2" height="2" patternUnits="userSpaceOnUse">
<rect x="0" y="0" width="1" height="1" fill="#000000" shape-rendering="crispEdges"/>
</pattern>
</defs>
<rect x="0" y="0" width="423" height="36" fill="#c8c8c8"/>
<rect x="0" y="36" width="405" height="18" fill="#c8c8c8"/>
<rect x="0" y="54" width="27" height="90" fill="#c8c8c8"/>
<rect x="27" y="54" width="18" height="18" fill="#ffffff"/>
<rect x="45" y="54" width="18" height="72" fill="#c8c8c8"/>
<rect x="63" y="54" width="18" height="18" fill="#ffffff"/>
<rect x="81" y="54" width="18" height="72" fill="#c8c8c8"/>
<rect x="99" y="54" width="18" height="18" fill="#ffffff"/>
<rect x="117" y="54" width="18" height="72" fill="#c8c8c8"/>
<rect x="135" y="54" width="18" height="18" fill="#ffffff"/>
<rect x="153" y="54" width="18" height="72" fill="#c8c8c8"/>
<rect x="171" y="54" width="18" height="18" fill="#ffffff"/>
<rect x="189" y="54" width="18" height="72" fill="#c8c8c8"/>
<rect x="207" y="54" width="18" height="18" fill="#ffffff"/>
<rect x="225" y="54" width="18" height="72" fill="#c8c8c8"/>
<rect x="243" y="54" width="18" height="18" fill="#ffffff"/>
<rect x="261" y="54" width="18" height="72" fill="#c8c8c8"/>
<rect x="279" y="54" width="18" height="18" fill="#ffffff"/>
<rect x="297" y="54" width="18" height="72" fill="#c8c8c8"/>
<rect x="315" y="54" width="18" height="18" fill="#ffffff"/>
<rect x="333" y="54" width="72" height="72" fill="#c8c8c8"/>
<rect x="27" y="72" width="18" height="54" fill="#c8c8c8"/>
<rect x="63" y="72" width="18" height="54" fill="#c8c8c8"/>
<rect x="99" y="72" width="18" height="54" fill="#c8c8c8"/>
<rect x="135" y="72" width="18" height="54" fill="#c8c8c8"/>
<rect x="171" y="72" width="18" height="54" fill="#c8c8c8"/>
<rect x="207" y="72" width="18" height="54" fill="#c8c8c8"/>
<rect x="243" y="72" width="18" height="54" fill="#c8c8c8"/>
<rect x="279" y="72" width="18" height="54" fill="#c8c8c8"/>
<rect x="315" y="72" width="18" height="54" fill="#c8c8c8"/>
<rect x="0" y="0" width="423" height="18" fill="url(#dither1-0000aa)"/>
<rect x="0" y="18" width="9" height="126" fill="url(#dither1-0000aa)"/>
<rect x="405" y="18" width="18" height="18" fill="url(#dither1-0000aa)"/>
<rect x="405" y="36" width="18" height="108" fill="url(#dither1-555555)"/>
<rect x="27" y="54" width="18" height="18" fill="url(#dither1-000000)"/>
<rect x="72" y="54" width="9" height="18" fill="url(#dither1-000000)"/>
<rect x="108" y="54" width="9" height="18" fill="url(#dither1-000000)"/>
<rect x="144" y="54" width="9" height="18" fill="url(#dither1-000000)"/>
<rect x="180" y="54" width="9" height="18" fill="url(#dither1-000000)"/>
<rect x="216" y="54" width="9" height="18" fill="url(#dither1-000000)"/>
<rect x="252" y="54" width="9" height="18" fill="url(#dither1-000000)"/>
<rect x="288" y="54" width="9" height="18" fill="url(#dither1-000000)"/>
<rect x="315" y="54" width="9" height="18" fill="#00aa00"/>
<rect x="324" y="54" width="9" height="18" fill="url(#dither1-000000)"/>
<rect x="9" y="126" width="18" height="18" fill="url(#dither1-0000aa)"/>
<rect x="27" y="126" width="378" height="18" fill="url(#dither1-555555)"/>
<g data-box-drawing="double">
<path d="M 13.5 36.5 L 13.5 27 L 18.5 27" fill="none" stroke="#ffffff" stroke-width="6" stroke-linecap="butt" stroke-linejoin="miter"/>
<path d="M 13.5 36.5 L 13.5 27 L 18.5 27" fill="none" stroke="#c8c8c8" stroke-width="2" stroke-linecap="butt" stroke-linejoin="miter"/>
</g>
<g data-box-drawing="double">
<path d="M 17.5 27 L 22.5 27 L 27.5 27" fill="none" stroke="#ffffff" stroke-width="6" stroke-linecap="butt" stroke-linejoin="miter"/>
<path d="M 17.5 27 L 22.5 27 L 27.5 27" fill="none" stroke="#c8c8c8" stroke-width="2" stroke-linecap="butt" stroke-linejoin="miter"/>
</g>
<text x="27" y="32" xml:space="preserve" fill="#ffffff">[</text>
<text x="36" y="32" xml:space="preserve" fill="#00aa00" font-weight="bold">■</text>
<text x="45" y="32" xml:space="preserve" fill="#ffffff">]</text>
<g data-box-drawing="double">
<path d="M 53.5 27 L 58.5 27 L 63.5 27" fill="none" stroke="#ffffff" stroke-width="6" stroke-linecap="butt" stroke-linejoin="miter"/>
<path d="M 53.5 27 L 58.5 27 L 63.5 27" fill="none" stroke="#c8c8c8" stroke-width="2" stroke-linecap="butt" stroke-linejoin="miter"/>
</g>
<g data-box-drawing="double">
<path d="M 62.5 27 L 67.5 27 L 72.5 27" fill="none" stroke="#ffffff" stroke-width="6" stroke-linecap="butt" stroke-linejoin="miter"/>
<path d="M 62.5 27 L 67.5 27 L 72.5 27" fill="none" stroke="#c8c8c8" stroke-width="2" stroke-linecap="butt" stroke-linejoin="miter"/>
</g>
<text x="81" y="32" xml:space="preserve" fill="#ffffff">S</text>
<text x="90" y="32" xml:space="preserve" fill="#ffffff">m</text>
<text x="99" y="32" xml:space="preserve" fill="#ffffff">o</text>
<text x="108" y="32" xml:space="preserve" fill="#ffffff">o</text>
<text x="117" y="32" xml:space="preserve" fill="#ffffff">t</text>
<text x="126" y="32" xml:space="preserve" fill="#ffffff">h</text>
<text x="144" y="32" xml:space="preserve" fill="#ffffff">e</text>
<text x="153" y="32" xml:space="preserve" fill="#ffffff">i</text>
<text x="162" y="32" xml:space="preserve" fill="#ffffff">g</text>
<text x="171" y="32" xml:space="preserve" fill="#ffffff">h</text>
<text x="180" y="32" xml:space="preserve" fill="#ffffff">t</text>
<text x="189" y="32" xml:space="preserve" fill="#ffffff">h</text>
<text x="198" y="32" xml:space="preserve" fill="#ffffff">-</text>
<text x="207" y="32" xml:space="preserve" fill="#ffffff">c</text>
<text x="216" y="32" xml:space="preserve" fill="#ffffff">e</text>
<text x="225" y="32" xml:space="preserve" fill="#ffffff">l</text>
<text x="234" y="32" xml:space="preserve" fill="#ffffff">l</text>
<text x="252" y="32" xml:space="preserve" fill="#ffffff">c</text>
<text x="261" y="32" xml:space="preserve" fill="#ffffff">o</text>
<text x="270" y="32" xml:space="preserve" fill="#ffffff">v</text>
<text x="279" y="32" xml:space="preserve" fill="#ffffff">e</text>
<text x="288" y="32" xml:space="preserve" fill="#ffffff">r</text>
<text x="297" y="32" xml:space="preserve" fill="#ffffff">a</text>
<text x="306" y="32" xml:space="preserve" fill="#ffffff">g</text>
<text x="315" y="32" xml:space="preserve" fill="#ffffff">e</text>
<text x="333" y="32" xml:space="preserve" fill="#ffffff">[</text>
<text x="342" y="32" xml:space="preserve" fill="#00aa00" font-weight="bold">_</text>
<text x="351" y="32" xml:space="preserve" fill="#ffffff">]</text>
<text x="360" y="32" xml:space="preserve" fill="#ffffff">[</text>
<text x="369" y="32" xml:space="preserve" fill="#00aa00" font-weight="bold">↑</text>
<text x="378" y="32" xml:space="preserve" fill="#ffffff">]</text>
<g data-box-drawing="double">
<path d="M 386.5 27 L 391.5 27 L 396.5 27" fill="none" stroke="#ffffff" stroke-width="6" stroke-linecap="butt" stroke-linejoin="miter"/>
<path d="M 386.5 27 L 391.5 27 L 396.5 27" fill="none" stroke="#c8c8c8" stroke-width="2" stroke-linecap="butt" stroke-linejoin="miter"/>
</g>
<g data-box-drawing="double">
<path d="M 400.5 36.5 L 400.5 27 L 395.5 27" fill="none" stroke="#ffffff" stroke-width="6" stroke-linecap="butt" stroke-linejoin="miter"/>
<path d="M 400.5 36.5 L 400.5 27 L 395.5 27" fill="none" stroke="#c8c8c8" stroke-width="2" stroke-linecap="butt" stroke-linejoin="miter"/>
</g>
<g data-box-drawing="double">
<path d="M 13.5 35.5 L 13.5 45 L 13.5 54.5" fill="none" stroke="#ffffff" stroke-width="6" stroke-linecap="butt" stroke-linejoin="miter"/>
<path d="M 13.5 35.5 L 13.5 45 L 13.5 54.5" fill="none" stroke="#c8c8c8" stroke-width="2" stroke-linecap="butt" stroke-linejoin="miter"/>
</g>
<g data-box-drawing="double">
<path d="M 400.5 35.5 L 400.5 45 L 400.5 54.5" fill="none" stroke="#ffffff" stroke-width="6" stroke-linecap="butt" stroke-linejoin="miter"/>
<path d="M 400.5 35.5 L 400.5 45 L 400.5 54.5" fill="none" stroke="#c8c8c8" stroke-width="2" stroke-linecap="butt" stroke-linejoin="miter"/>
</g>
<g data-box-drawing="double">
<path d="M 13.5 53.5 L 13.5 63 L 13.5 72.5" fill="none" stroke="#ffffff" stroke-width="6" stroke-linecap="butt" stroke-linejoin="miter"/>
<path d="M 13.5 53.5 L 13.5 63 L 13.5 72.5" fill="none" stroke="#c8c8c8" stroke-width="2" stroke-linecap="butt" stroke-linejoin="miter"/>
</g>
<rect x="63" y="54" width="1" height="18" fill="#00aa00"/>
<rect x="99" y="54" width="2" height="18" fill="#00aa00"/>
<rect x="135" y="54" width="3" height="18" fill="#00aa00"/>
<rect x="171" y="54" width="5" height="18" fill="#00aa00"/>
<rect x="207" y="54" width="6" height="18" fill="#00aa00"/>
<rect x="243" y="54" width="7" height="18" fill="#00aa00"/>
<rect x="279" y="54" width="8" height="18" fill="#00aa00"/>
<g data-box-drawing="double">
<path d="M 400.5 53.5 L 400.5 63 L 400.5 72.5" fill="none" stroke="#ffffff" stroke-width="6" stroke-linecap="butt" stroke-linejoin="miter"/>
<path d="M 400.5 53.5 L 400.5 63 L 400.5 72.5" fill="none" stroke="#c8c8c8" stroke-width="2" stroke-linecap="butt" stroke-linejoin="miter"/>
</g>
<g data-box-drawing="double">
<path d="M 13.5 71.5 L 13.5 81 L 13.5 90.5" fill="none" stroke="#ffffff" stroke-width="6" stroke-linecap="butt" stroke-linejoin="miter"/>
<path d="M 13.5 71.5 L 13.5 81 L 13.5 90.5" fill="none" stroke="#c8c8c8" stroke-width="2" stroke-linecap="butt" stroke-linejoin="miter"/>
</g>
<g data-box-drawing="double">
<path d="M 400.5 71.5 L 400.5 81 L 400.5 90.5" fill="none" stroke="#ffffff" stroke-width="6" stroke-linecap="butt" stroke-linejoin="miter"/>
<path d="M 400.5 71.5 L 400.5 81 L 400.5 90.5" fill="none" stroke="#c8c8c8" stroke-width="2" stroke-linecap="butt" stroke-linejoin="miter"/>
</g>
<g data-box-drawing="double">
<path d="M 13.5 89.5 L 13.5 99 L 13.5 108.5" fill="none" stroke="#ffffff" stroke-width="6" stroke-linecap="butt" stroke-linejoin="miter"/>
<path d="M 13.5 89.5 L 13.5 99 L 13.5 108.5" fill="none" stroke="#c8c8c8" stroke-width="2" stroke-linecap="butt" stroke-linejoin="miter"/>
</g>
<g data-box-drawing="double">
<path d="M 400.5 89.5 L 400.5 99 L 400.5 108.5" fill="none" stroke="#ffffff" stroke-width="6" stroke-linecap="butt" stroke-linejoin="miter"/>
<path d="M 400.5 89.5 L 400.5 99 L 400.5 108.5" fill="none" stroke="#c8c8c8" stroke-width="2" stroke-linecap="butt" stroke-linejoin="miter"/>
</g>
<g data-box-drawing="double">
<path d="M 13.5 107.5 L 13.5 117 L 18.5 117" fill="none" stroke="#ffffff" stroke-width="6" stroke-linecap="butt" stroke-linejoin="miter"/>
<path d="M 13.5 107.5 L 13.5 117 L 18.5 117" fill="none" stroke="#c8c8c8" stroke-width="2" stroke-linecap="butt" stroke-linejoin="miter"/>
</g>
<g data-box-drawing="double">
<path d="M 17.5 117 L 22.5 117 L 27.5 117" fill="none" stroke="#ffffff" stroke-width="6" stroke-linecap="butt" stroke-linejoin="miter"/>
<path d="M 17.5 117 L 22.5 117 L 27.5 117" fill="none" stroke="#c8c8c8" stroke-width="2" stroke-linecap="butt" stroke-linejoin="miter"/>
</g>
<g data-box-drawing="double">
<path d="M 26.5 117 L 31.5 117 L 36.5 117" fill="none" stroke="#ffffff" stroke-width="6" stroke-linecap="butt" stroke-linejoin="miter"/>
<path d="M 26.5 117 L 31.5 117 L 36.5 117" fill="none" stroke="#c8c8c8" stroke-width="2" stroke-linecap="butt" stroke-linejoin="miter"/>
</g>
<g data-box-drawing="double">
<path d="M 35.5 117 L 40.5 117 L 45.5 117" fill="none" stroke="#ffffff" stroke-width="6" stroke-linecap="butt" stroke-linejoin="miter"/>
<path d="M 35.5 117 L 40.5 117 L 45.5 117" fill="none" stroke="#c8c8c8" stroke-width="2" stroke-linecap="butt" stroke-linejoin="miter"/>
</g>
<g data-box-drawing="double">
<path d="M 44.5 117 L 49.5 117 L 54.5 117" fill="none" stroke="#ffffff" stroke-width="6" stroke-linecap="butt" stroke-linejoin="miter"/>
<path d="M 44.5 117 L 49.5 117 L 54.5 117" fill="none" stroke="#c8c8c8" stroke-width="2" stroke-linecap="butt" stroke-linejoin="miter"/>
</g>
<g data-box-drawing="double">
<path d="M 53.5 117 L 58.5 117 L 63.5 117" fill="none" stroke="#ffffff" stroke-width="6" stroke-linecap="butt" stroke-linejoin="miter"/>
<path d="M 53.5 117 L 58.5 117 L 63.5 117" fill="none" stroke="#c8c8c8" stroke-width="2" stroke-linecap="butt" stroke-linejoin="miter"/>
</g>
<g data-box-drawing="double">
<path d="M 62.5 117 L 67.5 117 L 72.5 117" fill="none" stroke="#ffffff" stroke-width="6" stroke-linecap="butt" stroke-linejoin="miter"/>
<path d="M 62.5 117 L 67.5 117 L 72.5 117" fill="none" stroke="#c8c8c8" stroke-width="2" stroke-linecap="butt" stroke-linejoin="miter"/>
</g>
<g data-box-drawing="double">
<path d="M 71.5 117 L 76.5 117 L 81.5 117" fill="none" stroke="#ffffff" stroke-width="6" stroke-linecap="butt" stroke-linejoin="miter"/>
<path d="M 71.5 117 L 76.5 117 L 81.5 117" fill="none" stroke="#c8c8c8" stroke-width="2" stroke-linecap="butt" stroke-linejoin="miter"/>
</g>
<g data-box-drawing="double">
<path d="M 80.5 117 L 85.5 117 L 90.5 117" fill="none" stroke="#ffffff" stroke-width="6" stroke-linecap="butt" stroke-linejoin="miter"/>
<path d="M 80.5 117 L 85.5 117 L 90.5 117" fill="none" stroke="#c8c8c8" stroke-width="2" stroke-linecap="butt" stroke-linejoin="miter"/>
</g>
<g data-box-drawing="double">
<path d="M 89.5 117 L 94.5 117 L 99.5 117" fill="none" stroke="#ffffff" stroke-width="6" stroke-linecap="butt" stroke-linejoin="miter"/>
<path d="M 89.5 117 L 94.5 117 L 99.5 117" fill="none" stroke="#c8c8c8" stroke-width="2" stroke-linecap="butt" stroke-linejoin="miter"/>
</g>
<g data-box-drawing="double">
<path d="M 98.5 117 L 103.5 117 L 108.5 117" fill="none" stroke="#ffffff" stroke-width="6" stroke-linecap="butt" stroke-linejoin="miter"/>
<path d="M 98.5 117 L 103.5 117 L 108.5 117" fill="none" stroke="#c8c8c8" stroke-width="2" stroke-linecap="butt" stroke-linejoin="miter"/>
</g>
<g data-box-drawing="double">
<path d="M 107.5 117 L 112.5 117 L 117.5 117" fill="none" stroke="#ffffff" stroke-width="6" stroke-linecap="butt" stroke-linejoin="miter"/>
<path d="M 107.5 117 L 112.5 117 L 117.5 117" fill="none" stroke="#c8c8c8" stroke-width="2" stroke-linecap="butt" stroke-linejoin="miter"/>
</g>
<g data-box-drawing="double">
<path d="M 116.5 117 L 121.5 117 L 126.5 117" fill="none" stroke="#ffffff" stroke-width="6" stroke-linecap="butt" stroke-linejoin="miter"/>
<path d="M 116.5 117 L 121.5 117 L 126.5 117" fill="none" stroke="#c8c8c8" stroke-width="2" stroke-linecap="butt" stroke-linejoin="miter"/>
</g>
<g data-box-drawing="double">
<path d="M 125.5 117 L 130.5 117 L 135.5 117" fill="none" stroke="#ffffff" stroke-width="6" stroke-linecap="butt" stroke-linejoin="miter"/>
<path d="M 125.5 117 L 130.5 117 L 135.5 117" fill="none" stroke="#c8c8c8" stroke-width="2" stroke-linecap="butt" stroke-linejoin="miter"/>
</g>
<g data-box-drawing="double">
<path d="M 134.5 117 L 139.5 117 L 144.5 117" fill="none" stroke="#ffffff" stroke-width="6" stroke-linecap="butt" stroke-linejoin="miter"/>
<path d="M 134.5 117 L 139.5 117 L 144.5 117" fill="none" stroke="#c8c8c8" stroke-width="2" stroke-linecap="butt" stroke-linejoin="miter"/>
</g>
<g data-box-drawing="double">
<path d="M 143.5 117 L 148.5 117 L 153.5 117" fill="none" stroke="#ffffff" stroke-width="6" stroke-linecap="butt" stroke-linejoin="miter"/>
<path d="M 143.5 117 L 148.5 117 L 153.5 117" fill="none" stroke="#c8c8c8" stroke-width="2" stroke-linecap="butt" stroke-linejoin="miter"/>
</g>
<g data-box-drawing="double">
<path d="M 152.5 117 L 157.5 117 L 162.5 117" fill="none" stroke="#ffffff" stroke-width="6" stroke-linecap="butt" stroke-linejoin="miter"/>
<path d="M 152.5 117 L 157.5 117 L 162.5 117" fill="none" stroke="#c8c8c8" stroke-width="2" stroke-linecap="butt" stroke-linejoin="miter"/>
</g>
<g data-box-drawing="double">
<path d="M 161.5 117 L 166.5 117 L 171.5 117" fill="none" stroke="#ffffff" stroke-width="6" stroke-linecap="butt" stroke-linejoin="miter"/>
<path d="M 161.5 117 L 166.5 117 L 171.5 117" fill="none" stroke="#c8c8c8" stroke-width="2" stroke-linecap="butt" stroke-linejoin="miter"/>
</g>
<g data-box-drawing="double">
<path d="M 170.5 117 L 175.5 117 L 180.5 117" fill="none" stroke="#ffffff" stroke-width="6" stroke-linecap="butt" stroke-linejoin="miter"/>
<path d="M 170.5 117 L 175.5 117 L 180.5 117" fill="none" stroke="#c8c8c8" stroke-width="2" stroke-linecap="butt" stroke-linejoin="miter"/>
</g>
<g data-box-drawing="double">
<path d="M 179.5 117 L 184.5 117 L 189.5 117" fill="none" stroke="#ffffff" stroke-width="6" stroke-linecap="butt" stroke-linejoin="miter"/>
<path d="M 179.5 117 L 184.5 117 L 189.5 117" fill="none" stroke="#c8c8c8" stroke-width="2" stroke-linecap="butt" stroke-linejoin="miter"/>
</g>
<g data-box-drawing="double">
<path d="M 188.5 117 L 193.5 117 L 198.5 117" fill="none" stroke="#ffffff" stroke-width="6" stroke-linecap="butt" stroke-linejoin="miter"/>
<path d="M 188.5 117 L 193.5 117 L 198.5 117" fill="none" stroke="#c8c8c8" stroke-width="2" stroke-linecap="butt" stroke-linejoin="miter"/>
</g>
<g data-box-drawing="double">
<path d="M 197.5 117 L 202.5 117 L 207.5 117" fill="none" stroke="#ffffff" stroke-width="6" stroke-linecap="butt" stroke-linejoin="miter"/>
<path d="M 197.5 117 L 202.5 117 L 207.5 117" fill="none" stroke="#c8c8c8" stroke-width="2" stroke-linecap="butt" stroke-linejoin="miter"/>
</g>
<g data-box-drawing="double">
<path d="M 206.5 117 L 211.5 117 L 216.5 117" fill="none" stroke="#ffffff" stroke-width="6" stroke-linecap="butt" stroke-linejoin="miter"/>
<path d="M 206.5 117 L 211.5 117 L 216.5 117" fill="none" stroke="#c8c8c8" stroke-width="2" stroke-linecap="butt" stroke-linejoin="miter"/>
</g>
<g data-box-drawing="double">
<path d="M 215.5 117 L 220.5 117 L 225.5 117" fill="none" stroke="#ffffff" stroke-width="6" stroke-linecap="butt" stroke-linejoin="miter"/>
<path d="M 215.5 117 L 220.5 117 L 225.5 117" fill="none" stroke="#c8c8c8" stroke-width="2" stroke-linecap="butt" stroke-linejoin="miter"/>
</g>
<g data-box-drawing="double">
<path d="M 224.5 117 L 229.5 117 L 234.5 117" fill="none" stroke="#ffffff" stroke-width="6" stroke-linecap="butt" stroke-linejoin="miter"/>
<path d="M 224.5 117 L 229.5 117 L 234.5 117" fill="none" stroke="#c8c8c8" stroke-width="2" stroke-linecap="butt" stroke-linejoin="miter"/>
</g>
<g data-box-drawing="double">
<path d="M 233.5 117 L 238.5 117 L 243.5 117" fill="none" stroke="#ffffff" stroke-width="6" stroke-linecap="butt" stroke-linejoin="miter"/>
<path d="M 233.5 117 L 238.5 117 L 243.5 117" fill="none" stroke="#c8c8c8" stroke-width="2" stroke-linecap="butt" stroke-linejoin="miter"/>
</g>
<g data-box-drawing="double">
<path d="M 242.5 117 L 247.5 117 L 252.5 117" fill="none" stroke="#ffffff" stroke-width="6" stroke-linecap="butt" stroke-linejoin="miter"/>
<path d="M 242.5 117 L 247.5 117 L 252.5 117" fill="none" stroke="#c8c8c8" stroke-width="2" stroke-linecap="butt" stroke-linejoin="miter"/>
</g>
<g data-box-drawing="double">
<path d="M 251.5 117 L 256.5 117 L 261.5 117" fill="none" stroke="#ffffff" stroke-width="6" stroke-linecap="butt" stroke-linejoin="miter"/>
<path d="M 251.5 117 L 256.5 117 L 261.5 117" fill="none" stroke="#c8c8c8" stroke-width="2" stroke-linecap="butt" stroke-linejoin="miter"/>
</g>
<g data-box-drawing="double">
<path d="M 260.5 117 L 265.5 117 L 270.5 117" fill="none" stroke="#ffffff" stroke-width="6" stroke-linecap="butt" stroke-linejoin="miter"/>
<path d="M 260.5 117 L 265.5 117 L 270.5 117" fill="none" stroke="#c8c8c8" stroke-width="2" stroke-linecap="butt" stroke-linejoin="miter"/>
</g>
<g data-box-drawing="double">
<path d="M 269.5 117 L 274.5 117 L 279.5 117" fill="none" stroke="#ffffff" stroke-width="6" stroke-linecap="butt" stroke-linejoin="miter"/>
<path d="M 269.5 117 L 274.5 117 L 279.5 117" fill="none" stroke="#c8c8c8" stroke-width="2" stroke-linecap="butt" stroke-linejoin="miter"/>
</g>
<g data-box-drawing="double">
<path d="M 278.5 117 L 283.5 117 L 288.5 117" fill="none" stroke="#ffffff" stroke-width="6" stroke-linecap="butt" stroke-linejoin="miter"/>
<path d="M 278.5 117 L 283.5 117 L 288.5 117" fill="none" stroke="#c8c8c8" stroke-width="2" stroke-linecap="butt" stroke-linejoin="miter"/>
</g>
<g data-box-drawing="double">
<path d="M 287.5 117 L 292.5 117 L 297.5 117" fill="none" stroke="#ffffff" stroke-width="6" stroke-linecap="butt" stroke-linejoin="miter"/>
<path d="M 287.5 117 L 292.5 117 L 297.5 117" fill="none" stroke="#c8c8c8" stroke-width="2" stroke-linecap="butt" stroke-linejoin="miter"/>
</g>
<g data-box-drawing="double">
<path d="M 296.5 117 L 301.5 117 L 306.5 117" fill="none" stroke="#ffffff" stroke-width="6" stroke-linecap="butt" stroke-linejoin="miter"/>
<path d="M 296.5 117 L 301.5 117 L 306.5 117" fill="none" stroke="#c8c8c8" stroke-width="2" stroke-linecap="butt" stroke-linejoin="miter"/>
</g>
<g data-box-drawing="double">
<path d="M 305.5 117 L 310.5 117 L 315.5 117" fill="none" stroke="#ffffff" stroke-width="6" stroke-linecap="butt" stroke-linejoin="miter"/>
<path d="M 305.5 117 L 310.5 117 L 315.5 117" fill="none" stroke="#c8c8c8" stroke-width="2" stroke-linecap="butt" stroke-linejoin="miter"/>
</g>
<g data-box-drawing="double">
<path d="M 314.5 117 L 319.5 117 L 324.5 117" fill="none" stroke="#ffffff" stroke-width="6" stroke-linecap="butt" stroke-linejoin="miter"/>
<path d="M 314.5 117 L 319.5 117 L 324.5 117" fill="none" stroke="#c8c8c8" stroke-width="2" stroke-linecap="butt" stroke-linejoin="miter"/>
</g>
<g data-box-drawing="double">
<path d="M 323.5 117 L 328.5 117 L 333.5 117" fill="none" stroke="#ffffff" stroke-width="6" stroke-linecap="butt" stroke-linejoin="miter"/>
<path d="M 323.5 117 L 328.5 117 L 333.5 117" fill="none" stroke="#c8c8c8" stroke-width="2" stroke-linecap="butt" stroke-linejoin="miter"/>
</g>
<g data-box-drawing="double">
<path d="M 332.5 117 L 337.5 117 L 342.5 117" fill="none" stroke="#ffffff" stroke-width="6" stroke-linecap="butt" stroke-linejoin="miter"/>
<path d="M 332.5 117 L 337.5 117 L 342.5 117" fill="none" stroke="#c8c8c8" stroke-width="2" stroke-linecap="butt" stroke-linejoin="miter"/>
</g>
<g data-box-drawing="double">
<path d="M 341.5 117 L 346.5 117 L 351.5 117" fill="none" stroke="#ffffff" stroke-width="6" stroke-linecap="butt" stroke-linejoin="miter"/>
<path d="M 341.5 117 L 346.5 117 L 351.5 117" fill="none" stroke="#c8c8c8" stroke-width="2" stroke-linecap="butt" stroke-linejoin="miter"/>
</g>
<g data-box-drawing="double">
<path d="M 350.5 117 L 355.5 117 L 360.5 117" fill="none" stroke="#ffffff" stroke-width="6" stroke-linecap="butt" stroke-linejoin="miter"/>
<path d="M 350.5 117 L 355.5 117 L 360.5 117" fill="none" stroke="#c8c8c8" stroke-width="2" stroke-linecap="butt" stroke-linejoin="miter"/>
</g>
<g data-box-drawing="double">
<path d="M 359.5 117 L 364.5 117 L 369.5 117" fill="none" stroke="#ffffff" stroke-width="6" stroke-linecap="butt" stroke-linejoin="miter"/>
<path d="M 359.5 117 L 364.5 117 L 369.5 117" fill="none" stroke="#c8c8c8" stroke-width="2" stroke-linecap="butt" stroke-linejoin="miter"/>
</g>
<g data-box-drawing="double">
<path d="M 368.5 117 L 373.5 117 L 378.5 117" fill="none" stroke="#ffffff" stroke-width="6" stroke-linecap="butt" stroke-linejoin="miter"/>
<path d="M 368.5 117 L 373.5 117 L 378.5 117" fill="none" stroke="#c8c8c8" stroke-width="2" stroke-linecap="butt" stroke-linejoin="miter"/>
</g>
<g data-box-drawing="double">
<path d="M 377.5 117 L 382.5 117 L 387.5 117" fill="none" stroke="#ffffff" stroke-width="6" stroke-linecap="butt" stroke-linejoin="miter"/>
<path d="M 377.5 117 L 382.5 117 L 387.5 117" fill="none" stroke="#c8c8c8" stroke-width="2" stroke-linecap="butt" stroke-linejoin="miter"/>
</g>
<g data-box-drawing="single">
<path d="M 386.5 117 L 391.5 117 L 396.5 117" fill="none" stroke="#00aa00" stroke-width="3" stroke-linecap="butt" stroke-linejoin="miter"/>
</g>
<g data-box-drawing="single">
<path d="M 400.5 107.5 L 400.5 117 L 395.5 117" fill="none" stroke="#00aa00" stroke-width="3" stroke-linecap="butt" stroke-linejoin="miter"/>
</g>
<g id="raster-plane">
</g>
</svg>
