<svg xmlns="http://www.w3.org/2000/svg" width="180" height="144" viewBox="0 0 180 144">
<rect x="0" y="0" width="180" height="144" fill="#000000"/>
<style>text{font-family:ui-monospace, 'SF Mono', 'Cascadia Code', 'DejaVu Sans Mono', monospace;font-size:15px}</style>
<defs>
<pattern id="dither1-0000aa" width="2" height="2" patternUnits="userSpaceOnUse">
<rect x="0" y="0" width="1" height="1" fill="#0000aa" shape-rendering="crispEdges"/>
</pattern>
<pattern id="dither1-555555" width="2" height="2" patternUnits="userSpaceOnUse">
<rect x="0" y="0" width="1" height="1" fill="#555555" shape-rendering="crispEdges"/>
</pattern>
</defs>
<rect x="0" y="0" width="135" height="36" fill="#c8c8c8"/>
<rect x="135" y="0" width="27" height="18" fill="#00aa00"/>
<rect x="162" y="0" width="18" height="36" fill="#c8c8c8"/>
<rect x="135" y="18" width="27" height="18" fill="#c8c8c8"/>
<rect x="0" y="36" width="72" height="108" fill="#c8c8c8"/>
<rect x="72" y="36" width="99" height="18" fill="#00aa00"/>
<rect x="171" y="36" width="9" height="36" fill="#c8c8c8"/>
<rect x="72" y="54" width="99" height="18" fill="#c8c8c8"/>
<rect x="72" y="72" width="9" height="72" fill="#c8c8c8"/>
<rect x="81" y="90" width="99" height="54" fill="#c8c8c8"/>
<rect x="0" y="18" width="63" height="126" fill="url(#dither1-0000aa)"/>
<rect x="63" y="72" width="18" height="72" fill="url(#dither1-0000aa)"/>
<rect x="81" y="72" width="99" height="18" fill="url(#dither1-555555)"/>
<rect x="81" y="90" width="99" height="54" fill="url(#dither1-0000aa)"/>
<text x="18" y="14" xml:space="preserve" fill="#aa0000">F</text>
<text x="27" y="14" xml:space="preserve" fill="#000000">i</text>
<text x="36" y="14" xml:space="preserve" fill="#000000">l</text>
<text x="45" y="14" xml:space="preserve" fill="#000000">e</text>
<text x="72" y="14" xml:space="preserve" fill="#aa0000">S</text>
<text x="81" y="14" xml:space="preserve" fill="#000000">e</text>
<text x="90" y="14" xml:space="preserve" fill="#000000">a</text>
<text x="99" y="14" xml:space="preserve" fill="#000000">r</text>
<text x="108" y="14" xml:space="preserve" fill="#000000">c</text>
<text x="117" y="14" xml:space="preserve" fill="#000000">h</text>
<text x="144" y="14" xml:space="preserve" fill="#000000">»</text>
<g data-box-drawing="single">
<path d="M 67.5 36.5 L 67.5 27 L 72.5 27" fill="none" stroke="#000000" stroke-width="2" stroke-linecap="butt" stroke-linejoin="miter"/>
</g>
<g data-box-drawing="single">
<path d="M 71.5 27 L 76.5 27 L 81.5 27" fill="none" stroke="#000000" stroke-width="2" stroke-linecap="butt" stroke-linejoin="miter"/>
</g>
<g data-box-drawing="single">
<path d="M 80.5 27 L 85.5 27 L 90.5 27" fill="none" stroke="#000000" stroke-width="2" stroke-linecap="butt" stroke-linejoin="miter"/>
</g>
<g data-box-drawing="single">
<path d="M 89.5 27 L 94.5 27 L 99.5 27" fill="none" stroke="#000000" stroke-width="2" stroke-linecap="butt" stroke-linejoin="miter"/>
</g>
<g data-box-drawing="single">
<path d="M 98.5 27 L 103.5 27 L 108.5 27" fill="none" stroke="#000000" stroke-width="2" stroke-linecap="butt" stroke-linejoin="miter"/>
</g>
<g data-box-drawing="single">
<path d="M 107.5 27 L 112.5 27 L 117.5 27" fill="none" stroke="#000000" stroke-width="2" stroke-linecap="butt" stroke-linejoin="miter"/>
</g>
<g data-box-drawing="single">
<path d="M 116.5 27 L 121.5 27 L 126.5 27" fill="none" stroke="#000000" stroke-width="2" stroke-linecap="butt" stroke-linejoin="miter"/>
</g>
<g data-box-drawing="single">
<path d="M 125.5 27 L 130.5 27 L 135.5 27" fill="none" stroke="#000000" stroke-width="2" stroke-linecap="butt" stroke-linejoin="miter"/>
</g>
<g data-box-drawing="single">
<path d="M 134.5 27 L 139.5 27 L 144.5 27" fill="none" stroke="#000000" stroke-width="2" stroke-linecap="butt" stroke-linejoin="miter"/>
</g>
<g data-box-drawing="single">
<path d="M 143.5 27 L 148.5 27 L 153.5 27" fill="none" stroke="#000000" stroke-width="2" stroke-linecap="butt" stroke-linejoin="miter"/>
</g>
<g data-box-drawing="single">
<path d="M 152.5 27 L 157.5 27 L 162.5 27" fill="none" stroke="#000000" stroke-width="2" stroke-linecap="butt" stroke-linejoin="miter"/>
</g>
<g data-box-drawing="single">
<path d="M 161.5 27 L 166.5 27 L 171.5 27" fill="none" stroke="#000000" stroke-width="2" stroke-linecap="butt" stroke-linejoin="miter"/>
</g>
<g data-box-drawing="single">
<path d="M 175.5 36.5 L 175.5 27 L 170.5 27" fill="none" stroke="#000000" stroke-width="2" stroke-linecap="butt" stroke-linejoin="miter"/>
</g>
<g data-box-drawing="single">
<path d="M 67.5 35.5 L 67.5 45 L 67.5 54.5" fill="none" stroke="#000000" stroke-width="2" stroke-linecap="butt" stroke-linejoin="miter"/>
</g>
<text x="81" y="50" xml:space="preserve" fill="#aa0000">W</text>
<text x="90" y="50" xml:space="preserve" fill="#000000">i</text>
<text x="99" y="50" xml:space="preserve" fill="#000000">n</text>
<text x="108" y="50" xml:space="preserve" fill="#000000">d</text>
<text x="117" y="50" xml:space="preserve" fill="#000000">o</text>
<text x="126" y="50" xml:space="preserve" fill="#000000">w</text>
<text x="153" y="50" xml:space="preserve" fill="#000000">►</text>
<g data-box-drawing="single">
<path d="M 175.5 35.5 L 175.5 45 L 175.5 54.5" fill="none" stroke="#000000" stroke-width="2" stroke-linecap="butt" stroke-linejoin="miter"/>
</g>
<g data-box-drawing="single">
<path d="M 67.5 53.5 L 67.5 63 L 72.5 63" fill="none" stroke="#000000" stroke-width="2" stroke-linecap="butt" stroke-linejoin="miter"/>
</g>
<g data-box-drawing="single">
<path d="M 71.5 63 L 76.5 63 L 81.5 63" fill="none" stroke="#000000" stroke-width="2" stroke-linecap="butt" stroke-linejoin="miter"/>
</g>
<g data-box-drawing="single">
<path d="M 80.5 63 L 85.5 63 L 90.5 63" fill="none" stroke="#000000" stroke-width="2" stroke-linecap="butt" stroke-linejoin="miter"/>
</g>
<g data-box-drawing="single">
<path d="M 89.5 63 L 94.5 63 L 99.5 63" fill="none" stroke="#000000" stroke-width="2" stroke-linecap="butt" stroke-linejoin="miter"/>
</g>
<g data-box-drawing="single">
<path d="M 98.5 63 L 103.5 63 L 108.5 63" fill="none" stroke="#000000" stroke-width="2" stroke-linecap="butt" stroke-linejoin="miter"/>
</g>
<g data-box-drawing="single">
<path d="M 107.5 63 L 112.5 63 L 117.5 63" fill="none" stroke="#000000" stroke-width="2" stroke-linecap="butt" stroke-linejoin="miter"/>
</g>
<g data-box-drawing="single">
<path d="M 116.5 63 L 121.5 63 L 126.5 63" fill="none" stroke="#000000" stroke-width="2" stroke-linecap="butt" stroke-linejoin="miter"/>
</g>
<g data-box-drawing="single">
<path d="M 125.5 63 L 130.5 63 L 135.5 63" fill="none" stroke="#000000" stroke-width="2" stroke-linecap="butt" stroke-linejoin="miter"/>
</g>
<g data-box-drawing="single">
<path d="M 134.5 63 L 139.5 63 L 144.5 63" fill="none" stroke="#000000" stroke-width="2" stroke-linecap="butt" stroke-linejoin="miter"/>
</g>
<g data-box-drawing="single">
<path d="M 143.5 63 L 148.5 63 L 153.5 63" fill="none" stroke="#000000" stroke-width="2" stroke-linecap="butt" stroke-linejoin="miter"/>
</g>
<g data-box-drawing="single">
<path d="M 152.5 63 L 157.5 63 L 162.5 63" fill="none" stroke="#000000" stroke-width="2" stroke-linecap="butt" stroke-linejoin="miter"/>
</g>
<g data-box-drawing="single">
<path d="M 161.5 63 L 166.5 63 L 171.5 63" fill="none" stroke="#000000" stroke-width="2" stroke-linecap="butt" stroke-linejoin="miter"/>
</g>
<g data-box-drawing="single">
<path d="M 175.5 53.5 L 175.5 63 L 170.5 63" fill="none" stroke="#000000" stroke-width="2" stroke-linecap="butt" stroke-linejoin="miter"/>
</g>
<g id="raster-plane">
</g>
</svg>
