<svg xmlns="http://www.w3.org/2000/svg" width="207" height="108" viewBox="0 0 207 108">
<rect x="0" y="0" width="207" height="108" fill="#000000"/>
<style>text{font-family:ui-monospace, 'SF Mono', 'Cascadia Code', 'DejaVu Sans Mono', monospace;font-size:15px}</style>
<defs>
<pattern id="dither1-0000aa" width="2" height="2" patternUnits="userSpaceOnUse">
<rect x="0" y="0" width="1" height="1" fill="#0000aa" shape-rendering="crispEdges"/>
</pattern>
<pattern id="dither1-555555" width="2" height="2" patternUnits="userSpaceOnUse">
<rect x="0" y="0" width="1" height="1" fill="#555555" shape-rendering="crispEdges"/>
</pattern>
</defs>
<rect x="0" y="0" width="207" height="36" fill="#c8c8c8"/>
<rect x="0" y="36" width="27" height="72" fill="#c8c8c8"/>
<rect x="27" y="36" width="162" height="18" fill="#0000aa"/>
<rect x="189" y="36" width="9" height="54" fill="#c8c8c8"/>
<rect x="27" y="54" width="162" height="36" fill="#c8c8c8"/>
<rect x="0" y="0" width="207" height="18" fill="url(#dither1-0000aa)"/>
<rect x="0" y="18" width="9" height="90" fill="url(#dither1-0000aa)"/>
<rect x="198" y="18" width="9" height="18" fill="url(#dither1-0000aa)"/>
<rect x="198" y="36" width="9" height="72" fill="url(#dither1-555555)"/>
<rect x="9" y="90" width="18" height="18" fill="url(#dither1-0000aa)"/>
<rect x="27" y="90" width="171" height="18" fill="url(#dither1-555555)"/>
<g data-box-drawing="double">
<path d="M 13.5 36.5 L 13.5 27 L 18.5 27" fill="none" stroke="#ffffff" stroke-width="6" stroke-linecap="butt" stroke-linejoin="miter"/>
<path d="M 13.5 36.5 L 13.5 27 L 18.5 27" fill="none" stroke="#c8c8c8" stroke-width="2" stroke-linecap="butt" stroke-linejoin="miter"/>
</g>
<g data-box-drawing="double">
<path d="M 17.5 27 L 22.5 27 L 27.5 27" fill="none" stroke="#ffffff" stroke-width="6" stroke-linecap="butt" stroke-linejoin="miter"/>
<path d="M 17.5 27 L 22.5 27 L 27.5 27" fill="none" stroke="#c8c8c8" stroke-width="2" stroke-linecap="butt" stroke-linejoin="miter"/>
</g>
<text x="27" y="32" xml:space="preserve" fill="#ffffff">[</text>
<text x="36" y="32" xml:space="preserve" fill="#00aa00" font-weight="bold">■</text>
<text x="45" y="32" xml:space="preserve" fill="#ffffff">]</text>
<text x="63" y="32" xml:space="preserve" fill="#ffffff">C</text>
<text x="72" y="32" xml:space="preserve" fill="#ffffff">o</text>
<text x="81" y="32" xml:space="preserve" fill="#ffffff">p</text>
<text x="90" y="32" xml:space="preserve" fill="#ffffff">i</text>
<text x="99" y="32" xml:space="preserve" fill="#ffffff">e</text>
<text x="108" y="32" xml:space="preserve" fill="#ffffff">s</text>
<text x="126" y="32" xml:space="preserve" fill="#ffffff">[</text>
<text x="135" y="32" xml:space="preserve" fill="#00aa00" font-weight="bold">_</text>
<text x="144" y="32" xml:space="preserve" fill="#ffffff">]</text>
<text x="153" y="32" xml:space="preserve" fill="#ffffff">[</text>
<text x="162" y="32" xml:space="preserve" fill="#00aa00" font-weight="bold">↑</text>
<text x="171" y="32" xml:space="preserve" fill="#ffffff">]</text>
<g data-box-drawing="double">
<path d="M 179.5 27 L 184.5 27 L 189.5 27" fill="none" stroke="#ffffff" stroke-width="6" stroke-linecap="butt" stroke-linejoin="miter"/>
<path d="M 179.5 27 L 184.5 27 L 189.5 27" fill="none" stroke="#c8c8c8" stroke-width="2" stroke-linecap="butt" stroke-linejoin="miter"/>
</g>
<g data-box-drawing="double">
<path d="M 193.5 36.5 L 193.5 27 L 188.5 27" fill="none" stroke="#ffffff" stroke-width="6" stroke-linecap="butt" stroke-linejoin="miter"/>
<path d="M 193.5 36.5 L 193.5 27 L 188.5 27" fill="none" stroke="#c8c8c8" stroke-width="2" stroke-linecap="butt" stroke-linejoin="miter"/>
</g>
<g data-box-drawing="double">
<path d="M 13.5 35.5 L 13.5 45 L 13.5 54.5" fill="none" stroke="#ffffff" stroke-width="6" stroke-linecap="butt" stroke-linejoin="miter"/>
<path d="M 13.5 35.5 L 13.5 45 L 13.5 54.5" fill="none" stroke="#c8c8c8" stroke-width="2" stroke-linecap="butt" stroke-linejoin="miter"/>
</g>
<text x="27" y="50" xml:space="preserve" fill="#ffffff">4</text>
<text x="36" y="50" xml:space="preserve" fill="#ffffff">0</text>
<text x="171" y="50" xml:space="preserve" fill="#ffffff" font-weight="bold">−</text>
<text x="180" y="50" xml:space="preserve" fill="#ffffff" font-weight="bold">+</text>
<g data-box-drawing="double">
<path d="M 193.5 35.5 L 193.5 45 L 193.5 54.5" fill="none" stroke="#ffffff" stroke-width="6" stroke-linecap="butt" stroke-linejoin="miter"/>
<path d="M 193.5 35.5 L 193.5 45 L 193.5 54.5" fill="none" stroke="#c8c8c8" stroke-width="2" stroke-linecap="butt" stroke-linejoin="miter"/>
</g>
<g data-box-drawing="double">
<path d="M 13.5 53.5 L 13.5 63 L 13.5 72.5" fill="none" stroke="#ffffff" stroke-width="6" stroke-linecap="butt" stroke-linejoin="miter"/>
<path d="M 13.5 53.5 L 13.5 63 L 13.5 72.5" fill="none" stroke="#c8c8c8" stroke-width="2" stroke-linecap="butt" stroke-linejoin="miter"/>
</g>
<g data-box-drawing="double">
<path d="M 193.5 53.5 L 193.5 63 L 193.5 72.5" fill="none" stroke="#ffffff" stroke-width="6" stroke-linecap="butt" stroke-linejoin="miter"/>
<path d="M 193.5 53.5 L 193.5 63 L 193.5 72.5" fill="none" stroke="#c8c8c8" stroke-width="2" stroke-linecap="butt" stroke-linejoin="miter"/>
</g>
<g data-box-drawing="double">
<path d="M 13.5 71.5 L 13.5 81 L 18.5 81" fill="none" stroke="#ffffff" stroke-width="6" stroke-linecap="butt" stroke-linejoin="miter"/>
<path d="M 13.5 71.5 L 13.5 81 L 18.5 81" fill="none" stroke="#c8c8c8" stroke-width="2" stroke-linecap="butt" stroke-linejoin="miter"/>
</g>
<g data-box-drawing="double">
<path d="M 17.5 81 L 22.5 81 L 27.5 81" fill="none" stroke="#ffffff" stroke-width="6" stroke-linecap="butt" stroke-linejoin="miter"/>
<path d="M 17.5 81 L 22.5 81 L 27.5 81" fill="none" stroke="#c8c8c8" stroke-width="2" stroke-linecap="butt" stroke-linejoin="miter"/>
</g>
<g data-box-drawing="double">
<path d="M 26.5 81 L 31.5 81 L 36.5 81" fill="none" stroke="#ffffff" stroke-width="6" stroke-linecap="butt" stroke-linejoin="miter"/>
<path d="M 26.5 81 L 31.5 81 L 36.5 81" fill="none" stroke="#c8c8c8" stroke-width="2" stroke-linecap="butt" stroke-linejoin="miter"/>
</g>
<g data-box-drawing="double">
<path d="M 35.5 81 L 40.5 81 L 45.5 81" fill="none" stroke="#ffffff" stroke-width="6" stroke-linecap="butt" stroke-linejoin="miter"/>
<path d="M 35.5 81 L 40.5 81 L 45.5 81" fill="none" stroke="#c8c8c8" stroke-width="2" stroke-linecap="butt" stroke-linejoin="miter"/>
</g>
<g data-box-drawing="double">
<path d="M 44.5 81 L 49.5 81 L 54.5 81" fill="none" stroke="#ffffff" stroke-width="6" stroke-linecap="butt" stroke-linejoin="miter"/>
<path d="M 44.5 81 L 49.5 81 L 54.5 81" fill="none" stroke="#c8c8c8" stroke-width="2" stroke-linecap="butt" stroke-linejoin="miter"/>
</g>
<g data-box-drawing="double">
<path d="M 53.5 81 L 58.5 81 L 63.5 81" fill="none" stroke="#ffffff" stroke-width="6" stroke-linecap="butt" stroke-linejoin="miter"/>
<path d="M 53.5 81 L 58.5 81 L 63.5 81" fill="none" stroke="#c8c8c8" stroke-width="2" stroke-linecap="butt" stroke-linejoin="miter"/>
</g>
<g data-box-drawing="double">
<path d="M 62.5 81 L 67.5 81 L 72.5 81" fill="none" stroke="#ffffff" stroke-width="6" stroke-linecap="butt" stroke-linejoin="miter"/>
<path d="M 62.5 81 L 67.5 81 L 72.5 81" fill="none" stroke="#c8c8c8" stroke-width="2" stroke-linecap="butt" stroke-linejoin="miter"/>
</g>
<g data-box-drawing="double">
<path d="M 71.5 81 L 76.5 81 L 81.5 81" fill="none" stroke="#ffffff" stroke-width="6" stroke-linecap="butt" stroke-linejoin="miter"/>
<path d="M 71.5 81 L 76.5 81 L 81.5 81" fill="none" stroke="#c8c8c8" stroke-width="2" stroke-linecap="butt" stroke-linejoin="miter"/>
</g>
<g data-box-drawing="double">
<path d="M 80.5 81 L 85.5 81 L 90.5 81" fill="none" stroke="#ffffff" stroke-width="6" stroke-linecap="butt" stroke-linejoin="miter"/>
<path d="M 80.5 81 L 85.5 81 L 90.5 81" fill="none" stroke="#c8c8c8" stroke-width="2" stroke-linecap="butt" stroke-linejoin="miter"/>
</g>
<g data-box-drawing="double">
<path d="M 89.5 81 L 94.5 81 L 99.5 81" fill="none" stroke="#ffffff" stroke-width="6" stroke-linecap="butt" stroke-linejoin="miter"/>
<path d="M 89.5 81 L 94.5 81 L 99.5 81" fill="none" stroke="#c8c8c8" stroke-width="2" stroke-linecap="butt" stroke-linejoin="miter"/>
</g>
<g data-box-drawing="double">
<path d="M 98.5 81 L 103.5 81 L 108.5 81" fill="none" stroke="#ffffff" stroke-width="6" stroke-linecap="butt" stroke-linejoin="miter"/>
<path d="M 98.5 81 L 103.5 81 L 108.5 81" fill="none" stroke="#c8c8c8" stroke-width="2" stroke-linecap="butt" stroke-linejoin="miter"/>
</g>
<g data-box-drawing="double">
<path d="M 107.5 81 L 112.5 81 L 117.5 81" fill="none" stroke="#ffffff" stroke-width="6" stroke-linecap="butt" stroke-linejoin="miter"/>
<path d="M 107.5 81 L 112.5 81 L 117.5 81" fill="none" stroke="#c8c8c8" stroke-width="2" stroke-linecap="butt" stroke-linejoin="miter"/>
</g>
<g data-box-drawing="double">
<path d="M 116.5 81 L 121.5 81 L 126.5 81" fill="none" stroke="#ffffff" stroke-width="6" stroke-linecap="butt" stroke-linejoin="miter"/>
<path d="M 116.5 81 L 121.5 81 L 126.5 81" fill="none" stroke="#c8c8c8" stroke-width="2" stroke-linecap="butt" stroke-linejoin="miter"/>
</g>
<g data-box-drawing="double">
<path d="M 125.5 81 L 130.5 81 L 135.5 81" fill="none" stroke="#ffffff" stroke-width="6" stroke-linecap="butt" stroke-linejoin="miter"/>
<path d="M 125.5 81 L 130.5 81 L 135.5 81" fill="none" stroke="#c8c8c8" stroke-width="2" stroke-linecap="butt" stroke-linejoin="miter"/>
</g>
<g data-box-drawing="double">
<path d="M 134.5 81 L 139.5 81 L 144.5 81" fill="none" stroke="#ffffff" stroke-width="6" stroke-linecap="butt" stroke-linejoin="miter"/>
<path d="M 134.5 81 L 139.5 81 L 144.5 81" fill="none" stroke="#c8c8c8" stroke-width="2" stroke-linecap="butt" stroke-linejoin="miter"/>
</g>
<g data-box-drawing="double">
<path d="M 143.5 81 L 148.5 81 L 153.5 81" fill="none" stroke="#ffffff" stroke-width="6" stroke-linecap="butt" stroke-linejoin="miter"/>
<path d="M 143.5 81 L 148.5 81 L 153.5 81" fill="none" stroke="#c8c8c8" stroke-width="2" stroke-linecap="butt" stroke-linejoin="miter"/>
</g>
<g data-box-drawing="double">
<path d="M 152.5 81 L 157.5 81 L 162.5 81" fill="none" stroke="#ffffff" stroke-width="6" stroke-linecap="butt" stroke-linejoin="miter"/>
<path d="M 152.5 81 L 157.5 81 L 162.5 81" fill="none" stroke="#c8c8c8" stroke-width="2" stroke-linecap="butt" stroke-linejoin="miter"/>
</g>
<g data-box-drawing="double">
<path d="M 161.5 81 L 166.5 81 L 171.5 81" fill="none" stroke="#ffffff" stroke-width="6" stroke-linecap="butt" stroke-linejoin="miter"/>
<path d="M 161.5 81 L 166.5 81 L 171.5 81" fill="none" stroke="#c8c8c8" stroke-width="2" stroke-linecap="butt" stroke-linejoin="miter"/>
</g>
<g data-box-drawing="double">
<path d="M 170.5 81 L 175.5 81 L 180.5 81" fill="none" stroke="#ffffff" stroke-width="6" stroke-linecap="butt" stroke-linejoin="miter"/>
<path d="M 170.5 81 L 175.5 81 L 180.5 81" fill="none" stroke="#c8c8c8" stroke-width="2" stroke-linecap="butt" stroke-linejoin="miter"/>
</g>
<g data-box-drawing="single">
<path d="M 179.5 81 L 184.5 81 L 189.5 81" fill="none" stroke="#00aa00" stroke-width="3" stroke-linecap="butt" stroke-linejoin="miter"/>
</g>
<g data-box-drawing="single">
<path d="M 193.5 71.5 L 193.5 81 L 188.5 81" fill="none" stroke="#00aa00" stroke-width="3" stroke-linecap="butt" stroke-linejoin="miter"/>
</g>
<g id="raster-plane">
</g>
</svg>
