<svg xmlns="http://www.w3.org/2000/svg" width="441" height="198" viewBox="0 0 441 198">
<rect x="0" y="0" width="441" height="198" fill="#000000"/>
<style>text{font-family:ui-monospace, 'SF Mono', 'Cascadia Code', 'DejaVu Sans Mono', monospace;font-size:15px}</style>
<defs>
<pattern id="dither1-0000aa" width="2" height="2" patternUnits="userSpaceOnUse">
<rect x="0" y="0" width="1" height="1" fill="#0000aa" shape-rendering="crispEdges"/>
</pattern>
<pattern id="dither1-000055" width="2" height="2" patternUnits="userSpaceOnUse">
<rect x="0" y="0" width="1" height="1" fill="#000055" shape-rendering="crispEdges"/>
</pattern>
</defs>
<rect x="0" y="0" width="441" height="36" fill="#c8c8c8"/>
<rect x="0" y="36" width="423" height="126" fill="#c8c8c8"/>
<rect x="423" y="36" width="18" height="144" fill="#646464"/>
<rect x="0" y="162" width="27" height="36" fill="#c8c8c8"/>
<rect x="27" y="162" width="396" height="18" fill="#646464"/>
<rect x="27" y="180" width="414" height="18" fill="#c8c8c8"/>
<rect x="0" y="0" width="441" height="18" fill="url(#dither1-0000aa)"/>
<rect x="0" y="18" width="9" height="180" fill="url(#dither1-0000aa)"/>
<rect x="423" y="18" width="18" height="18" fill="url(#dither1-0000aa)"/>
<rect x="423" y="36" width="18" height="144" fill="url(#dither1-000055)"/>
<rect x="9" y="162" width="18" height="36" fill="url(#dither1-0000aa)"/>
<rect x="27" y="162" width="396" height="18" fill="url(#dither1-000055)"/>
<rect x="27" y="180" width="414" height="18" fill="url(#dither1-0000aa)"/>
<g data-box-drawing="double">
<path d="M 13.5 36.5 L 13.5 27 L 18.5 27" fill="none" stroke="#ffffff" stroke-width="6" stroke-linecap="butt" stroke-linejoin="miter"/>
<path d="M 13.5 36.5 L 13.5 27 L 18.5 27" fill="none" stroke="#c8c8c8" stroke-width="2" stroke-linecap="butt" stroke-linejoin="miter"/>
</g>
<g data-box-drawing="double">
<path d="M 17.5 27 L 22.5 27 L 27.5 27" fill="none" stroke="#ffffff" stroke-width="6" stroke-linecap="butt" stroke-linejoin="miter"/>
<path d="M 17.5 27 L 22.5 27 L 27.5 27" fill="none" stroke="#c8c8c8" stroke-width="2" stroke-linecap="butt" stroke-linejoin="miter"/>
</g>
<text x="27" y="32" xml:space="preserve" fill="#ffffff">[</text>
<text x="36" y="32" xml:space="preserve" fill="#00aa00" font-weight="bold">■</text>
<text x="45" y="32" xml:space="preserve" fill="#ffffff">]</text>
<g data-box-drawing="double">
<path d="M 53.5 27 L 58.5 27 L 63.5 27" fill="none" stroke="#ffffff" stroke-width="6" stroke-linecap="butt" stroke-linejoin="miter"/>
<path d="M 53.5 27 L 58.5 27 L 63.5 27" fill="none" stroke="#c8c8c8" stroke-width="2" stroke-linecap="butt" stroke-linejoin="miter"/>
</g>
<g data-box-drawing="double">
<path d="M 62.5 27 L 67.5 27 L 72.5 27" fill="none" stroke="#ffffff" stroke-width="6" stroke-linecap="butt" stroke-linejoin="miter"/>
<path d="M 62.5 27 L 67.5 27 L 72.5 27" fill="none" stroke="#c8c8c8" stroke-width="2" stroke-linecap="butt" stroke-linejoin="miter"/>
</g>
<g data-box-drawing="double">
<path d="M 71.5 27 L 76.5 27 L 81.5 27" fill="none" stroke="#ffffff" stroke-width="6" stroke-linecap="butt" stroke-linejoin="miter"/>
<path d="M 71.5 27 L 76.5 27 L 81.5 27" fill="none" stroke="#c8c8c8" stroke-width="2" stroke-linecap="butt" stroke-linejoin="miter"/>
</g>
<g data-box-drawing="double">
<path d="M 80.5 27 L 85.5 27 L 90.5 27" fill="none" stroke="#ffffff" stroke-width="6" stroke-linecap="butt" stroke-linejoin="miter"/>
<path d="M 80.5 27 L 85.5 27 L 90.5 27" fill="none" stroke="#c8c8c8" stroke-width="2" stroke-linecap="butt" stroke-linejoin="miter"/>
</g>
<g data-box-drawing="double">
<path d="M 89.5 27 L 94.5 27 L 99.5 27" fill="none" stroke="#ffffff" stroke-width="6" stroke-linecap="butt" stroke-linejoin="miter"/>
<path d="M 89.5 27 L 94.5 27 L 99.5 27" fill="none" stroke="#c8c8c8" stroke-width="2" stroke-linecap="butt" stroke-linejoin="miter"/>
</g>
<g data-box-drawing="double">
<path d="M 98.5 27 L 103.5 27 L 108.5 27" fill="none" stroke="#ffffff" stroke-width="6" stroke-linecap="butt" stroke-linejoin="miter"/>
<path d="M 98.5 27 L 103.5 27 L 108.5 27" fill="none" stroke="#c8c8c8" stroke-width="2" stroke-linecap="butt" stroke-linejoin="miter"/>
</g>
<g data-box-drawing="double">
<path d="M 107.5 27 L 112.5 27 L 117.5 27" fill="none" stroke="#ffffff" stroke-width="6" stroke-linecap="butt" stroke-linejoin="miter"/>
<path d="M 107.5 27 L 112.5 27 L 117.5 27" fill="none" stroke="#c8c8c8" stroke-width="2" stroke-linecap="butt" stroke-linejoin="miter"/>
</g>
<g data-box-drawing="double">
<path d="M 116.5 27 L 121.5 27 L 126.5 27" fill="none" stroke="#ffffff" stroke-width="6" stroke-linecap="butt" stroke-linejoin="miter"/>
<path d="M 116.5 27 L 121.5 27 L 126.5 27" fill="none" stroke="#c8c8c8" stroke-width="2" stroke-linecap="butt" stroke-linejoin="miter"/>
</g>
<g data-box-drawing="double">
<path d="M 125.5 27 L 130.5 27 L 135.5 27" fill="none" stroke="#ffffff" stroke-width="6" stroke-linecap="butt" stroke-linejoin="miter"/>
<path d="M 125.5 27 L 130.5 27 L 135.5 27" fill="none" stroke="#c8c8c8" stroke-width="2" stroke-linecap="butt" stroke-linejoin="miter"/>
</g>
<g data-box-drawing="double">
<path d="M 134.5 27 L 139.5 27 L 144.5 27" fill="none" stroke="#ffffff" stroke-width="6" stroke-linecap="butt" stroke-linejoin="miter"/>
<path d="M 134.5 27 L 139.5 27 L 144.5 27" fill="none" stroke="#c8c8c8" stroke-width="2" stroke-linecap="butt" stroke-linejoin="miter"/>
</g>
<g data-box-drawing="double">
<path d="M 143.5 27 L 148.5 27 L 153.5 27" fill="none" stroke="#ffffff" stroke-width="6" stroke-linecap="butt" stroke-linejoin="miter"/>
<path d="M 143.5 27 L 148.5 27 L 153.5 27" fill="none" stroke="#c8c8c8" stroke-width="2" stroke-linecap="butt" stroke-linejoin="miter"/>
</g>
<g data-box-drawing="double">
<path d="M 152.5 27 L 157.5 27 L 162.5 27" fill="none" stroke="#ffffff" stroke-width="6" stroke-linecap="butt" stroke-linejoin="miter"/>
<path d="M 152.5 27 L 157.5 27 L 162.5 27" fill="none" stroke="#c8c8c8" stroke-width="2" stroke-linecap="butt" stroke-linejoin="miter"/>
</g>
<g data-box-drawing="double">
<path d="M 161.5 27 L 166.5 27 L 171.5 27" fill="none" stroke="#ffffff" stroke-width="6" stroke-linecap="butt" stroke-linejoin="miter"/>
<path d="M 161.5 27 L 166.5 27 L 171.5 27" fill="none" stroke="#c8c8c8" stroke-width="2" stroke-linecap="butt" stroke-linejoin="miter"/>
</g>
<g data-box-drawing="double">
<path d="M 170.5 27 L 175.5 27 L 180.5 27" fill="none" stroke="#ffffff" stroke-width="6" stroke-linecap="butt" stroke-linejoin="miter"/>
<path d="M 170.5 27 L 175.5 27 L 180.5 27" fill="none" stroke="#c8c8c8" stroke-width="2" stroke-linecap="butt" stroke-linejoin="miter"/>
</g>
<text x="189" y="32" xml:space="preserve" fill="#ffffff">R</text>
<text x="198" y="32" xml:space="preserve" fill="#ffffff">e</text>
<text x="207" y="32" xml:space="preserve" fill="#ffffff">p</text>
<text x="216" y="32" xml:space="preserve" fill="#ffffff">o</text>
<text x="225" y="32" xml:space="preserve" fill="#ffffff">r</text>
<text x="234" y="32" xml:space="preserve" fill="#ffffff">t</text>
<g data-box-drawing="double">
<path d="M 251.5 27 L 256.5 27 L 261.5 27" fill="none" stroke="#ffffff" stroke-width="6" stroke-linecap="butt" stroke-linejoin="miter"/>
<path d="M 251.5 27 L 256.5 27 L 261.5 27" fill="none" stroke="#c8c8c8" stroke-width="2" stroke-linecap="butt" stroke-linejoin="miter"/>
</g>
<g data-box-drawing="double">
<path d="M 260.5 27 L 265.5 27 L 270.5 27" fill="none" stroke="#ffffff" stroke-width="6" stroke-linecap="butt" stroke-linejoin="miter"/>
<path d="M 260.5 27 L 265.5 27 L 270.5 27" fill="none" stroke="#c8c8c8" stroke-width="2" stroke-linecap="butt" stroke-linejoin="miter"/>
</g>
<g data-box-drawing="double">
<path d="M 269.5 27 L 274.5 27 L 279.5 27" fill="none" stroke="#ffffff" stroke-width="6" stroke-linecap="butt" stroke-linejoin="miter"/>
<path d="M 269.5 27 L 274.5 27 L 279.5 27" fill="none" stroke="#c8c8c8" stroke-width="2" stroke-linecap="butt" stroke-linejoin="miter"/>
</g>
<g data-box-drawing="double">
<path d="M 278.5 27 L 283.5 27 L 288.5 27" fill="none" stroke="#ffffff" stroke-width="6" stroke-linecap="butt" stroke-linejoin="miter"/>
<path d="M 278.5 27 L 283.5 27 L 288.5 27" fill="none" stroke="#c8c8c8" stroke-width="2" stroke-linecap="butt" stroke-linejoin="miter"/>
</g>
<g data-box-drawing="double">
<path d="M 287.5 27 L 292.5 27 L 297.5 27" fill="none" stroke="#ffffff" stroke-width="6" stroke-linecap="butt" stroke-linejoin="miter"/>
<path d="M 287.5 27 L 292.5 27 L 297.5 27" fill="none" stroke="#c8c8c8" stroke-width="2" stroke-linecap="butt" stroke-linejoin="miter"/>
</g>
<g data-box-drawing="double">
<path d="M 296.5 27 L 301.5 27 L 306.5 27" fill="none" stroke="#ffffff" stroke-width="6" stroke-linecap="butt" stroke-linejoin="miter"/>
<path d="M 296.5 27 L 301.5 27 L 306.5 27" fill="none" stroke="#c8c8c8" stroke-width="2" stroke-linecap="butt" stroke-linejoin="miter"/>
</g>
<g data-box-drawing="double">
<path d="M 305.5 27 L 310.5 27 L 315.5 27" fill="none" stroke="#ffffff" stroke-width="6" stroke-linecap="butt" stroke-linejoin="miter"/>
<path d="M 305.5 27 L 310.5 27 L 315.5 27" fill="none" stroke="#c8c8c8" stroke-width="2" stroke-linecap="butt" stroke-linejoin="miter"/>
</g>
<g data-box-drawing="double">
<path d="M 314.5 27 L 319.5 27 L 324.5 27" fill="none" stroke="#ffffff" stroke-width="6" stroke-linecap="butt" stroke-linejoin="miter"/>
<path d="M 314.5 27 L 319.5 27 L 324.5 27" fill="none" stroke="#c8c8c8" stroke-width="2" stroke-linecap="butt" stroke-linejoin="miter"/>
</g>
<g data-box-drawing="double">
<path d="M 323.5 27 L 328.5 27 L 333.5 27" fill="none" stroke="#ffffff" stroke-width="6" stroke-linecap="butt" stroke-linejoin="miter"/>
<path d="M 323.5 27 L 328.5 27 L 333.5 27" fill="none" stroke="#c8c8c8" stroke-width="2" stroke-linecap="butt" stroke-linejoin="miter"/>
</g>
<g data-box-drawing="double">
<path d="M 332.5 27 L 337.5 27 L 342.5 27" fill="none" stroke="#ffffff" stroke-width="6" stroke-linecap="butt" stroke-linejoin="miter"/>
<path d="M 332.5 27 L 337.5 27 L 342.5 27" fill="none" stroke="#c8c8c8" stroke-width="2" stroke-linecap="butt" stroke-linejoin="miter"/>
</g>
<g data-box-drawing="double">
<path d="M 341.5 27 L 346.5 27 L 351.5 27" fill="none" stroke="#ffffff" stroke-width="6" stroke-linecap="butt" stroke-linejoin="miter"/>
<path d="M 341.5 27 L 346.5 27 L 351.5 27" fill="none" stroke="#c8c8c8" stroke-width="2" stroke-linecap="butt" stroke-linejoin="miter"/>
</g>
<text x="351" y="32" xml:space="preserve" fill="#ffffff">[</text>
<text x="360" y="32" xml:space="preserve" fill="#00aa00" font-weight="bold">_</text>
<text x="369" y="32" xml:space="preserve" fill="#ffffff">]</text>
<text x="378" y="32" xml:space="preserve" fill="#ffffff">[</text>
<text x="387" y="32" xml:space="preserve" fill="#00aa00" font-weight="bold">↑</text>
<text x="396" y="32" xml:space="preserve" fill="#ffffff">]</text>
<g data-box-drawing="double">
<path d="M 404.5 27 L 409.5 27 L 414.5 27" fill="none" stroke="#ffffff" stroke-width="6" stroke-linecap="butt" stroke-linejoin="miter"/>
<path d="M 404.5 27 L 409.5 27 L 414.5 27" fill="none" stroke="#c8c8c8" stroke-width="2" stroke-linecap="butt" stroke-linejoin="miter"/>
</g>
<g data-box-drawing="double">
<path d="M 418.5 36.5 L 418.5 27 L 413.5 27" fill="none" stroke="#ffffff" stroke-width="6" stroke-linecap="butt" stroke-linejoin="miter"/>
<path d="M 418.5 36.5 L 418.5 27 L 413.5 27" fill="none" stroke="#c8c8c8" stroke-width="2" stroke-linecap="butt" stroke-linejoin="miter"/>
</g>
<g data-box-drawing="double">
<path d="M 13.5 35.5 L 13.5 45 L 13.5 54.5" fill="none" stroke="#ffffff" stroke-width="6" stroke-linecap="butt" stroke-linejoin="miter"/>
<path d="M 13.5 35.5 L 13.5 45 L 13.5 54.5" fill="none" stroke="#c8c8c8" stroke-width="2" stroke-linecap="butt" stroke-linejoin="miter"/>
</g>
<text x="18" y="50" xml:space="preserve" fill="#000000">[</text>
<text x="27" y="50" xml:space="preserve" fill="#000000">&amp;</text>
<text x="36" y="50" xml:space="preserve" fill="#000000">O</text>
<text x="45" y="50" xml:space="preserve" fill="#000000">p</text>
<text x="54" y="50" xml:space="preserve" fill="#000000">e</text>
<text x="63" y="50" xml:space="preserve" fill="#000000">n</text>
<text x="72" y="50" xml:space="preserve" fill="#000000">.</text>
<text x="81" y="50" xml:space="preserve" fill="#000000">.</text>
<text x="90" y="50" xml:space="preserve" fill="#000000">.</text>
<text x="99" y="50" xml:space="preserve" fill="#000000">]</text>
<text x="117" y="50" xml:space="preserve" fill="#000000">[</text>
<text x="126" y="50" xml:space="preserve" fill="#000000">&amp;</text>
<text x="135" y="50" xml:space="preserve" fill="#000000">S</text>
<text x="144" y="50" xml:space="preserve" fill="#000000">a</text>
<text x="153" y="50" xml:space="preserve" fill="#000000">v</text>
<text x="162" y="50" xml:space="preserve" fill="#000000">e</text>
<text x="171" y="50" xml:space="preserve" fill="#000000">]</text>
<text x="189" y="50" xml:space="preserve" fill="#aaaaaa">[</text>
<text x="198" y="50" xml:space="preserve" fill="#aaaaaa">&amp;</text>
<text x="207" y="50" xml:space="preserve" fill="#aaaaaa">P</text>
<text x="216" y="50" xml:space="preserve" fill="#aaaaaa">r</text>
<text x="225" y="50" xml:space="preserve" fill="#aaaaaa">i</text>
<text x="234" y="50" xml:space="preserve" fill="#aaaaaa">n</text>
<text x="243" y="50" xml:space="preserve" fill="#aaaaaa">t</text>
<text x="252" y="50" xml:space="preserve" fill="#aaaaaa">]</text>
<text x="270" y="50" xml:space="preserve" fill="#000000">[</text>
<text x="279" y="50" xml:space="preserve" fill="#000000">&amp;</text>
<text x="288" y="50" xml:space="preserve" fill="#000000">F</text>
<text x="297" y="50" xml:space="preserve" fill="#000000">i</text>
<text x="306" y="50" xml:space="preserve" fill="#000000">n</text>
<text x="315" y="50" xml:space="preserve" fill="#000000">d</text>
<text x="324" y="50" xml:space="preserve" fill="#000000">.</text>
<text x="333" y="50" xml:space="preserve" fill="#000000">.</text>
<text x="342" y="50" xml:space="preserve" fill="#000000">.</text>
<text x="351" y="50" xml:space="preserve" fill="#000000">]</text>
<g data-box-drawing="double">
<path d="M 418.5 35.5 L 418.5 45 L 418.5 54.5" fill="none" stroke="#ffffff" stroke-width="6" stroke-linecap="butt" stroke-linejoin="miter"/>
<path d="M 418.5 35.5 L 418.5 45 L 418.5 54.5" fill="none" stroke="#c8c8c8" stroke-width="2" stroke-linecap="butt" stroke-linejoin="miter"/>
</g>
<g data-box-drawing="double">
<path d="M 13.5 53.5 L 13.5 63 L 13.5 72.5" fill="none" stroke="#ffffff" stroke-width="6" stroke-linecap="butt" stroke-linejoin="miter"/>
<path d="M 13.5 53.5 L 13.5 63 L 13.5 72.5" fill="none" stroke="#c8c8c8" stroke-width="2" stroke-linecap="butt" stroke-linejoin="miter"/>
</g>
<g data-box-drawing="double">
<path d="M 418.5 53.5 L 418.5 63 L 418.5 72.5" fill="none" stroke="#ffffff" stroke-width="6" stroke-linecap="butt" stroke-linejoin="miter"/>
<path d="M 418.5 53.5 L 418.5 63 L 418.5 72.5" fill="none" stroke="#c8c8c8" stroke-width="2" stroke-linecap="butt" stroke-linejoin="miter"/>
</g>
<g data-box-drawing="double">
<path d="M 13.5 71.5 L 13.5 81 L 13.5 90.5" fill="none" stroke="#ffffff" stroke-width="6" stroke-linecap="butt" stroke-linejoin="miter"/>
<path d="M 13.5 71.5 L 13.5 81 L 13.5 90.5" fill="none" stroke="#c8c8c8" stroke-width="2" stroke-linecap="butt" stroke-linejoin="miter"/>
</g>
<text x="18" y="86" xml:space="preserve" fill="#000000">A</text>
<text x="36" y="86" xml:space="preserve" fill="#000000">T</text>
<text x="45" y="86" xml:space="preserve" fill="#000000">o</text>
<text x="54" y="86" xml:space="preserve" fill="#000000">o</text>
<text x="63" y="86" xml:space="preserve" fill="#000000">l</text>
<text x="72" y="86" xml:space="preserve" fill="#000000">B</text>
<text x="81" y="86" xml:space="preserve" fill="#000000">a</text>
<text x="90" y="86" xml:space="preserve" fill="#000000">r</text>
<text x="108" y="86" xml:space="preserve" fill="#000000">p</text>
<text x="117" y="86" xml:space="preserve" fill="#000000">r</text>
<text x="126" y="86" xml:space="preserve" fill="#000000">e</text>
<text x="135" y="86" xml:space="preserve" fill="#000000">s</text>
<text x="144" y="86" xml:space="preserve" fill="#000000">e</text>
<text x="153" y="86" xml:space="preserve" fill="#000000">n</text>
<text x="162" y="86" xml:space="preserve" fill="#000000">t</text>
<text x="171" y="86" xml:space="preserve" fill="#000000">s</text>
<text x="189" y="86" xml:space="preserve" fill="#000000">r</text>
<text x="198" y="86" xml:space="preserve" fill="#000000">e</text>
<text x="207" y="86" xml:space="preserve" fill="#000000">g</text>
<text x="216" y="86" xml:space="preserve" fill="#000000">i</text>
<text x="225" y="86" xml:space="preserve" fill="#000000">s</text>
<text x="234" y="86" xml:space="preserve" fill="#000000">t</text>
<text x="243" y="86" xml:space="preserve" fill="#000000">e</text>
<text x="252" y="86" xml:space="preserve" fill="#000000">r</text>
<text x="261" y="86" xml:space="preserve" fill="#000000">e</text>
<text x="270" y="86" xml:space="preserve" fill="#000000">d</text>
<text x="288" y="86" xml:space="preserve" fill="#000000">c</text>
<text x="297" y="86" xml:space="preserve" fill="#000000">o</text>
<text x="306" y="86" xml:space="preserve" fill="#000000">m</text>
<text x="315" y="86" xml:space="preserve" fill="#000000">m</text>
<text x="324" y="86" xml:space="preserve" fill="#000000">a</text>
<text x="333" y="86" xml:space="preserve" fill="#000000">n</text>
<text x="342" y="86" xml:space="preserve" fill="#000000">d</text>
<text x="351" y="86" xml:space="preserve" fill="#000000">s</text>
<text x="360" y="86" xml:space="preserve" fill="#000000">:</text>
<text x="378" y="86" xml:space="preserve" fill="#000000">i</text>
<text x="387" y="86" xml:space="preserve" fill="#000000">t</text>
<g data-box-drawing="double">
<path d="M 418.5 71.5 L 418.5 81 L 418.5 90.5" fill="none" stroke="#ffffff" stroke-width="6" stroke-linecap="butt" stroke-linejoin="miter"/>
<path d="M 418.5 71.5 L 418.5 81 L 418.5 90.5" fill="none" stroke="#c8c8c8" stroke-width="2" stroke-linecap="butt" stroke-linejoin="miter"/>
</g>
<g data-box-drawing="double">
<path d="M 13.5 89.5 L 13.5 99 L 13.5 108.5" fill="none" stroke="#ffffff" stroke-width="6" stroke-linecap="butt" stroke-linejoin="miter"/>
<path d="M 13.5 89.5 L 13.5 99 L 13.5 108.5" fill="none" stroke="#c8c8c8" stroke-width="2" stroke-linecap="butt" stroke-linejoin="miter"/>
</g>
<text x="18" y="104" xml:space="preserve" fill="#000000">r</text>
<text x="27" y="104" xml:space="preserve" fill="#000000">e</text>
<text x="36" y="104" xml:space="preserve" fill="#000000">a</text>
<text x="45" y="104" xml:space="preserve" fill="#000000">d</text>
<text x="54" y="104" xml:space="preserve" fill="#000000">s</text>
<text x="72" y="104" xml:space="preserve" fill="#000000">t</text>
<text x="81" y="104" xml:space="preserve" fill="#000000">h</text>
<text x="90" y="104" xml:space="preserve" fill="#000000">e</text>
<text x="99" y="104" xml:space="preserve" fill="#000000">i</text>
<text x="108" y="104" xml:space="preserve" fill="#000000">r</text>
<text x="126" y="104" xml:space="preserve" fill="#000000">t</text>
<text x="135" y="104" xml:space="preserve" fill="#000000">i</text>
<text x="144" y="104" xml:space="preserve" fill="#000000">t</text>
<text x="153" y="104" xml:space="preserve" fill="#000000">l</text>
<text x="162" y="104" xml:space="preserve" fill="#000000">e</text>
<text x="171" y="104" xml:space="preserve" fill="#000000">s</text>
<text x="189" y="104" xml:space="preserve" fill="#000000">a</text>
<text x="198" y="104" xml:space="preserve" fill="#000000">n</text>
<text x="207" y="104" xml:space="preserve" fill="#000000">d</text>
<text x="225" y="104" xml:space="preserve" fill="#000000">e</text>
<text x="234" y="104" xml:space="preserve" fill="#000000">n</text>
<text x="243" y="104" xml:space="preserve" fill="#000000">a</text>
<text x="252" y="104" xml:space="preserve" fill="#000000">b</text>
<text x="261" y="104" xml:space="preserve" fill="#000000">l</text>
<text x="270" y="104" xml:space="preserve" fill="#000000">e</text>
<text x="279" y="104" xml:space="preserve" fill="#000000">m</text>
<text x="288" y="104" xml:space="preserve" fill="#000000">e</text>
<text x="297" y="104" xml:space="preserve" fill="#000000">n</text>
<text x="306" y="104" xml:space="preserve" fill="#000000">t</text>
<text x="324" y="104" xml:space="preserve" fill="#000000">f</text>
<text x="333" y="104" xml:space="preserve" fill="#000000">r</text>
<text x="342" y="104" xml:space="preserve" fill="#000000">o</text>
<text x="351" y="104" xml:space="preserve" fill="#000000">m</text>
<text x="369" y="104" xml:space="preserve" fill="#000000">t</text>
<text x="378" y="104" xml:space="preserve" fill="#000000">h</text>
<text x="387" y="104" xml:space="preserve" fill="#000000">e</text>
<g data-box-drawing="double">
<path d="M 418.5 89.5 L 418.5 99 L 418.5 108.5" fill="none" stroke="#ffffff" stroke-width="6" stroke-linecap="butt" stroke-linejoin="miter"/>
<path d="M 418.5 89.5 L 418.5 99 L 418.5 108.5" fill="none" stroke="#c8c8c8" stroke-width="2" stroke-linecap="butt" stroke-linejoin="miter"/>
</g>
<g data-box-drawing="double">
<path d="M 13.5 107.5 L 13.5 117 L 13.5 126.5" fill="none" stroke="#ffffff" stroke-width="6" stroke-linecap="butt" stroke-linejoin="miter"/>
<path d="M 13.5 107.5 L 13.5 117 L 13.5 126.5" fill="none" stroke="#c8c8c8" stroke-width="2" stroke-linecap="butt" stroke-linejoin="miter"/>
</g>
<text x="18" y="122" xml:space="preserve" fill="#000000">r</text>
<text x="27" y="122" xml:space="preserve" fill="#000000">e</text>
<text x="36" y="122" xml:space="preserve" fill="#000000">g</text>
<text x="45" y="122" xml:space="preserve" fill="#000000">i</text>
<text x="54" y="122" xml:space="preserve" fill="#000000">s</text>
<text x="63" y="122" xml:space="preserve" fill="#000000">t</text>
<text x="72" y="122" xml:space="preserve" fill="#000000">r</text>
<text x="81" y="122" xml:space="preserve" fill="#000000">y</text>
<text x="99" y="122" xml:space="preserve" fill="#000000">a</text>
<text x="108" y="122" xml:space="preserve" fill="#000000">n</text>
<text x="117" y="122" xml:space="preserve" fill="#000000">d</text>
<text x="135" y="122" xml:space="preserve" fill="#000000">r</text>
<text x="144" y="122" xml:space="preserve" fill="#000000">u</text>
<text x="153" y="122" xml:space="preserve" fill="#000000">n</text>
<text x="162" y="122" xml:space="preserve" fill="#000000">s</text>
<text x="180" y="122" xml:space="preserve" fill="#000000">t</text>
<text x="189" y="122" xml:space="preserve" fill="#000000">h</text>
<text x="198" y="122" xml:space="preserve" fill="#000000">e</text>
<text x="207" y="122" xml:space="preserve" fill="#000000">m</text>
<text x="225" y="122" xml:space="preserve" fill="#000000">t</text>
<text x="234" y="122" xml:space="preserve" fill="#000000">h</text>
<text x="243" y="122" xml:space="preserve" fill="#000000">r</text>
<text x="252" y="122" xml:space="preserve" fill="#000000">o</text>
<text x="261" y="122" xml:space="preserve" fill="#000000">u</text>
<text x="270" y="122" xml:space="preserve" fill="#000000">g</text>
<text x="279" y="122" xml:space="preserve" fill="#000000">h</text>
<text x="297" y="122" xml:space="preserve" fill="#000000">i</text>
<text x="306" y="122" xml:space="preserve" fill="#000000">t</text>
<text x="315" y="122" xml:space="preserve" fill="#000000">.</text>
<g data-box-drawing="double">
<path d="M 418.5 107.5 L 418.5 117 L 418.5 126.5" fill="none" stroke="#ffffff" stroke-width="6" stroke-linecap="butt" stroke-linejoin="miter"/>
<path d="M 418.5 107.5 L 418.5 117 L 418.5 126.5" fill="none" stroke="#c8c8c8" stroke-width="2" stroke-linecap="butt" stroke-linejoin="miter"/>
</g>
<g data-box-drawing="double">
<path d="M 13.5 125.5 L 13.5 135 L 13.5 144.5" fill="none" stroke="#ffffff" stroke-width="6" stroke-linecap="butt" stroke-linejoin="miter"/>
<path d="M 13.5 125.5 L 13.5 135 L 13.5 144.5" fill="none" stroke="#c8c8c8" stroke-width="2" stroke-linecap="butt" stroke-linejoin="miter"/>
</g>
<g data-box-drawing="double">
<path d="M 418.5 125.5 L 418.5 135 L 418.5 144.5" fill="none" stroke="#ffffff" stroke-width="6" stroke-linecap="butt" stroke-linejoin="miter"/>
<path d="M 418.5 125.5 L 418.5 135 L 418.5 144.5" fill="none" stroke="#c8c8c8" stroke-width="2" stroke-linecap="butt" stroke-linejoin="miter"/>
</g>
<g data-box-drawing="double">
<path d="M 13.5 143.5 L 13.5 153 L 18.5 153" fill="none" stroke="#ffffff" stroke-width="6" stroke-linecap="butt" stroke-linejoin="miter"/>
<path d="M 13.5 143.5 L 13.5 153 L 18.5 153" fill="none" stroke="#c8c8c8" stroke-width="2" stroke-linecap="butt" stroke-linejoin="miter"/>
</g>
<g data-box-drawing="double">
<path d="M 17.5 153 L 22.5 153 L 27.5 153" fill="none" stroke="#ffffff" stroke-width="6" stroke-linecap="butt" stroke-linejoin="miter"/>
<path d="M 17.5 153 L 22.5 153 L 27.5 153" fill="none" stroke="#c8c8c8" stroke-width="2" stroke-linecap="butt" stroke-linejoin="miter"/>
</g>
<g data-box-drawing="double">
<path d="M 26.5 153 L 31.5 153 L 36.5 153" fill="none" stroke="#ffffff" stroke-width="6" stroke-linecap="butt" stroke-linejoin="miter"/>
<path d="M 26.5 153 L 31.5 153 L 36.5 153" fill="none" stroke="#c8c8c8" stroke-width="2" stroke-linecap="butt" stroke-linejoin="miter"/>
</g>
<g data-box-drawing="double">
<path d="M 35.5 153 L 40.5 153 L 45.5 153" fill="none" stroke="#ffffff" stroke-width="6" stroke-linecap="butt" stroke-linejoin="miter"/>
<path d="M 35.5 153 L 40.5 153 L 45.5 153" fill="none" stroke="#c8c8c8" stroke-width="2" stroke-linecap="butt" stroke-linejoin="miter"/>
</g>
<g data-box-drawing="double">
<path d="M 44.5 153 L 49.5 153 L 54.5 153" fill="none" stroke="#ffffff" stroke-width="6" stroke-linecap="butt" stroke-linejoin="miter"/>
<path d="M 44.5 153 L 49.5 153 L 54.5 153" fill="none" stroke="#c8c8c8" stroke-width="2" stroke-linecap="butt" stroke-linejoin="miter"/>
</g>
<g data-box-drawing="double">
<path d="M 53.5 153 L 58.5 153 L 63.5 153" fill="none" stroke="#ffffff" stroke-width="6" stroke-linecap="butt" stroke-linejoin="miter"/>
<path d="M 53.5 153 L 58.5 153 L 63.5 153" fill="none" stroke="#c8c8c8" stroke-width="2" stroke-linecap="butt" stroke-linejoin="miter"/>
</g>
<g data-box-drawing="double">
<path d="M 62.5 153 L 67.5 153 L 72.5 153" fill="none" stroke="#ffffff" stroke-width="6" stroke-linecap="butt" stroke-linejoin="miter"/>
<path d="M 62.5 153 L 67.5 153 L 72.5 153" fill="none" stroke="#c8c8c8" stroke-width="2" stroke-linecap="butt" stroke-linejoin="miter"/>
</g>
<g data-box-drawing="double">
<path d="M 71.5 153 L 76.5 153 L 81.5 153" fill="none" stroke="#ffffff" stroke-width="6" stroke-linecap="butt" stroke-linejoin="miter"/>
<path d="M 71.5 153 L 76.5 153 L 81.5 153" fill="none" stroke="#c8c8c8" stroke-width="2" stroke-linecap="butt" stroke-linejoin="miter"/>
</g>
<g data-box-drawing="double">
<path d="M 80.5 153 L 85.5 153 L 90.5 153" fill="none" stroke="#ffffff" stroke-width="6" stroke-linecap="butt" stroke-linejoin="miter"/>
<path d="M 80.5 153 L 85.5 153 L 90.5 153" fill="none" stroke="#c8c8c8" stroke-width="2" stroke-linecap="butt" stroke-linejoin="miter"/>
</g>
<g data-box-drawing="double">
<path d="M 89.5 153 L 94.5 153 L 99.5 153" fill="none" stroke="#ffffff" stroke-width="6" stroke-linecap="butt" stroke-linejoin="miter"/>
<path d="M 89.5 153 L 94.5 153 L 99.5 153" fill="none" stroke="#c8c8c8" stroke-width="2" stroke-linecap="butt" stroke-linejoin="miter"/>
</g>
<g data-box-drawing="double">
<path d="M 98.5 153 L 103.5 153 L 108.5 153" fill="none" stroke="#ffffff" stroke-width="6" stroke-linecap="butt" stroke-linejoin="miter"/>
<path d="M 98.5 153 L 103.5 153 L 108.5 153" fill="none" stroke="#c8c8c8" stroke-width="2" stroke-linecap="butt" stroke-linejoin="miter"/>
</g>
<g data-box-drawing="double">
<path d="M 107.5 153 L 112.5 153 L 117.5 153" fill="none" stroke="#ffffff" stroke-width="6" stroke-linecap="butt" stroke-linejoin="miter"/>
<path d="M 107.5 153 L 112.5 153 L 117.5 153" fill="none" stroke="#c8c8c8" stroke-width="2" stroke-linecap="butt" stroke-linejoin="miter"/>
</g>
<g data-box-drawing="double">
<path d="M 116.5 153 L 121.5 153 L 126.5 153" fill="none" stroke="#ffffff" stroke-width="6" stroke-linecap="butt" stroke-linejoin="miter"/>
<path d="M 116.5 153 L 121.5 153 L 126.5 153" fill="none" stroke="#c8c8c8" stroke-width="2" stroke-linecap="butt" stroke-linejoin="miter"/>
</g>
<g data-box-drawing="double">
<path d="M 125.5 153 L 130.5 153 L 135.5 153" fill="none" stroke="#ffffff" stroke-width="6" stroke-linecap="butt" stroke-linejoin="miter"/>
<path d="M 125.5 153 L 130.5 153 L 135.5 153" fill="none" stroke="#c8c8c8" stroke-width="2" stroke-linecap="butt" stroke-linejoin="miter"/>
</g>
<g data-box-drawing="double">
<path d="M 134.5 153 L 139.5 153 L 144.5 153" fill="none" stroke="#ffffff" stroke-width="6" stroke-linecap="butt" stroke-linejoin="miter"/>
<path d="M 134.5 153 L 139.5 153 L 144.5 153" fill="none" stroke="#c8c8c8" stroke-width="2" stroke-linecap="butt" stroke-linejoin="miter"/>
</g>
<g data-box-drawing="double">
<path d="M 143.5 153 L 148.5 153 L 153.5 153" fill="none" stroke="#ffffff" stroke-width="6" stroke-linecap="butt" stroke-linejoin="miter"/>
<path d="M 143.5 153 L 148.5 153 L 153.5 153" fill="none" stroke="#c8c8c8" stroke-width="2" stroke-linecap="butt" stroke-linejoin="miter"/>
</g>
<g data-box-drawing="double">
<path d="M 152.5 153 L 157.5 153 L 162.5 153" fill="none" stroke="#ffffff" stroke-width="6" stroke-linecap="butt" stroke-linejoin="miter"/>
<path d="M 152.5 153 L 157.5 153 L 162.5 153" fill="none" stroke="#c8c8c8" stroke-width="2" stroke-linecap="butt" stroke-linejoin="miter"/>
</g>
<g data-box-drawing="double">
<path d="M 161.5 153 L 166.5 153 L 171.5 153" fill="none" stroke="#ffffff" stroke-width="6" stroke-linecap="butt" stroke-linejoin="miter"/>
<path d="M 161.5 153 L 166.5 153 L 171.5 153" fill="none" stroke="#c8c8c8" stroke-width="2" stroke-linecap="butt" stroke-linejoin="miter"/>
</g>
<g data-box-drawing="double">
<path d="M 170.5 153 L 175.5 153 L 180.5 153" fill="none" stroke="#ffffff" stroke-width="6" stroke-linecap="butt" stroke-linejoin="miter"/>
<path d="M 170.5 153 L 175.5 153 L 180.5 153" fill="none" stroke="#c8c8c8" stroke-width="2" stroke-linecap="butt" stroke-linejoin="miter"/>
</g>
<g data-box-drawing="double">
<path d="M 179.5 153 L 184.5 153 L 189.5 153" fill="none" stroke="#ffffff" stroke-width="6" stroke-linecap="butt" stroke-linejoin="miter"/>
<path d="M 179.5 153 L 184.5 153 L 189.5 153" fill="none" stroke="#c8c8c8" stroke-width="2" stroke-linecap="butt" stroke-linejoin="miter"/>
</g>
<g data-box-drawing="double">
<path d="M 188.5 153 L 193.5 153 L 198.5 153" fill="none" stroke="#ffffff" stroke-width="6" stroke-linecap="butt" stroke-linejoin="miter"/>
<path d="M 188.5 153 L 193.5 153 L 198.5 153" fill="none" stroke="#c8c8c8" stroke-width="2" stroke-linecap="butt" stroke-linejoin="miter"/>
</g>
<g data-box-drawing="double">
<path d="M 197.5 153 L 202.5 153 L 207.5 153" fill="none" stroke="#ffffff" stroke-width="6" stroke-linecap="butt" stroke-linejoin="miter"/>
<path d="M 197.5 153 L 202.5 153 L 207.5 153" fill="none" stroke="#c8c8c8" stroke-width="2" stroke-linecap="butt" stroke-linejoin="miter"/>
</g>
<g data-box-drawing="double">
<path d="M 206.5 153 L 211.5 153 L 216.5 153" fill="none" stroke="#ffffff" stroke-width="6" stroke-linecap="butt" stroke-linejoin="miter"/>
<path d="M 206.5 153 L 211.5 153 L 216.5 153" fill="none" stroke="#c8c8c8" stroke-width="2" stroke-linecap="butt" stroke-linejoin="miter"/>
</g>
<g data-box-drawing="double">
<path d="M 215.5 153 L 220.5 153 L 225.5 153" fill="none" stroke="#ffffff" stroke-width="6" stroke-linecap="butt" stroke-linejoin="miter"/>
<path d="M 215.5 153 L 220.5 153 L 225.5 153" fill="none" stroke="#c8c8c8" stroke-width="2" stroke-linecap="butt" stroke-linejoin="miter"/>
</g>
<g data-box-drawing="double">
<path d="M 224.5 153 L 229.5 153 L 234.5 153" fill="none" stroke="#ffffff" stroke-width="6" stroke-linecap="butt" stroke-linejoin="miter"/>
<path d="M 224.5 153 L 229.5 153 L 234.5 153" fill="none" stroke="#c8c8c8" stroke-width="2" stroke-linecap="butt" stroke-linejoin="miter"/>
</g>
<g data-box-drawing="double">
<path d="M 233.5 153 L 238.5 153 L 243.5 153" fill="none" stroke="#ffffff" stroke-width="6" stroke-linecap="butt" stroke-linejoin="miter"/>
<path d="M 233.5 153 L 238.5 153 L 243.5 153" fill="none" stroke="#c8c8c8" stroke-width="2" stroke-linecap="butt" stroke-linejoin="miter"/>
</g>
<g data-box-drawing="double">
<path d="M 242.5 153 L 247.5 153 L 252.5 153" fill="none" stroke="#ffffff" stroke-width="6" stroke-linecap="butt" stroke-linejoin="miter"/>
<path d="M 242.5 153 L 247.5 153 L 252.5 153" fill="none" stroke="#c8c8c8" stroke-width="2" stroke-linecap="butt" stroke-linejoin="miter"/>
</g>
<g data-box-drawing="double">
<path d="M 251.5 153 L 256.5 153 L 261.5 153" fill="none" stroke="#ffffff" stroke-width="6" stroke-linecap="butt" stroke-linejoin="miter"/>
<path d="M 251.5 153 L 256.5 153 L 261.5 153" fill="none" stroke="#c8c8c8" stroke-width="2" stroke-linecap="butt" stroke-linejoin="miter"/>
</g>
<g data-box-drawing="double">
<path d="M 260.5 153 L 265.5 153 L 270.5 153" fill="none" stroke="#ffffff" stroke-width="6" stroke-linecap="butt" stroke-linejoin="miter"/>
<path d="M 260.5 153 L 265.5 153 L 270.5 153" fill="none" stroke="#c8c8c8" stroke-width="2" stroke-linecap="butt" stroke-linejoin="miter"/>
</g>
<g data-box-drawing="double">
<path d="M 269.5 153 L 274.5 153 L 279.5 153" fill="none" stroke="#ffffff" stroke-width="6" stroke-linecap="butt" stroke-linejoin="miter"/>
<path d="M 269.5 153 L 274.5 153 L 279.5 153" fill="none" stroke="#c8c8c8" stroke-width="2" stroke-linecap="butt" stroke-linejoin="miter"/>
</g>
<g data-box-drawing="double">
<path d="M 278.5 153 L 283.5 153 L 288.5 153" fill="none" stroke="#ffffff" stroke-width="6" stroke-linecap="butt" stroke-linejoin="miter"/>
<path d="M 278.5 153 L 283.5 153 L 288.5 153" fill="none" stroke="#c8c8c8" stroke-width="2" stroke-linecap="butt" stroke-linejoin="miter"/>
</g>
<g data-box-drawing="double">
<path d="M 287.5 153 L 292.5 153 L 297.5 153" fill="none" stroke="#ffffff" stroke-width="6" stroke-linecap="butt" stroke-linejoin="miter"/>
<path d="M 287.5 153 L 292.5 153 L 297.5 153" fill="none" stroke="#c8c8c8" stroke-width="2" stroke-linecap="butt" stroke-linejoin="miter"/>
</g>
<g data-box-drawing="double">
<path d="M 296.5 153 L 301.5 153 L 306.5 153" fill="none" stroke="#ffffff" stroke-width="6" stroke-linecap="butt" stroke-linejoin="miter"/>
<path d="M 296.5 153 L 301.5 153 L 306.5 153" fill="none" stroke="#c8c8c8" stroke-width="2" stroke-linecap="butt" stroke-linejoin="miter"/>
</g>
<g data-box-drawing="double">
<path d="M 305.5 153 L 310.5 153 L 315.5 153" fill="none" stroke="#ffffff" stroke-width="6" stroke-linecap="butt" stroke-linejoin="miter"/>
<path d="M 305.5 153 L 310.5 153 L 315.5 153" fill="none" stroke="#c8c8c8" stroke-width="2" stroke-linecap="butt" stroke-linejoin="miter"/>
</g>
<g data-box-drawing="double">
<path d="M 314.5 153 L 319.5 153 L 324.5 153" fill="none" stroke="#ffffff" stroke-width="6" stroke-linecap="butt" stroke-linejoin="miter"/>
<path d="M 314.5 153 L 319.5 153 L 324.5 153" fill="none" stroke="#c8c8c8" stroke-width="2" stroke-linecap="butt" stroke-linejoin="miter"/>
</g>
<g data-box-drawing="double">
<path d="M 323.5 153 L 328.5 153 L 333.5 153" fill="none" stroke="#ffffff" stroke-width="6" stroke-linecap="butt" stroke-linejoin="miter"/>
<path d="M 323.5 153 L 328.5 153 L 333.5 153" fill="none" stroke="#c8c8c8" stroke-width="2" stroke-linecap="butt" stroke-linejoin="miter"/>
</g>
<g data-box-drawing="double">
<path d="M 332.5 153 L 337.5 153 L 342.5 153" fill="none" stroke="#ffffff" stroke-width="6" stroke-linecap="butt" stroke-linejoin="miter"/>
<path d="M 332.5 153 L 337.5 153 L 342.5 153" fill="none" stroke="#c8c8c8" stroke-width="2" stroke-linecap="butt" stroke-linejoin="miter"/>
</g>
<g data-box-drawing="double">
<path d="M 341.5 153 L 346.5 153 L 351.5 153" fill="none" stroke="#ffffff" stroke-width="6" stroke-linecap="butt" stroke-linejoin="miter"/>
<path d="M 341.5 153 L 346.5 153 L 351.5 153" fill="none" stroke="#c8c8c8" stroke-width="2" stroke-linecap="butt" stroke-linejoin="miter"/>
</g>
<g data-box-drawing="double">
<path d="M 350.5 153 L 355.5 153 L 360.5 153" fill="none" stroke="#ffffff" stroke-width="6" stroke-linecap="butt" stroke-linejoin="miter"/>
<path d="M 350.5 153 L 355.5 153 L 360.5 153" fill="none" stroke="#c8c8c8" stroke-width="2" stroke-linecap="butt" stroke-linejoin="miter"/>
</g>
<g data-box-drawing="double">
<path d="M 359.5 153 L 364.5 153 L 369.5 153" fill="none" stroke="#ffffff" stroke-width="6" stroke-linecap="butt" stroke-linejoin="miter"/>
<path d="M 359.5 153 L 364.5 153 L 369.5 153" fill="none" stroke="#c8c8c8" stroke-width="2" stroke-linecap="butt" stroke-linejoin="miter"/>
</g>
<g data-box-drawing="double">
<path d="M 368.5 153 L 373.5 153 L 378.5 153" fill="none" stroke="#ffffff" stroke-width="6" stroke-linecap="butt" stroke-linejoin="miter"/>
<path d="M 368.5 153 L 373.5 153 L 378.5 153" fill="none" stroke="#c8c8c8" stroke-width="2" stroke-linecap="butt" stroke-linejoin="miter"/>
</g>
<g data-box-drawing="double">
<path d="M 377.5 153 L 382.5 153 L 387.5 153" fill="none" stroke="#ffffff" stroke-width="6" stroke-linecap="butt" stroke-linejoin="miter"/>
<path d="M 377.5 153 L 382.5 153 L 387.5 153" fill="none" stroke="#c8c8c8" stroke-width="2" stroke-linecap="butt" stroke-linejoin="miter"/>
</g>
<g data-box-drawing="double">
<path d="M 386.5 153 L 391.5 153 L 396.5 153" fill="none" stroke="#ffffff" stroke-width="6" stroke-linecap="butt" stroke-linejoin="miter"/>
<path d="M 386.5 153 L 391.5 153 L 396.5 153" fill="none" stroke="#c8c8c8" stroke-width="2" stroke-linecap="butt" stroke-linejoin="miter"/>
</g>
<g data-box-drawing="double">
<path d="M 395.5 153 L 400.5 153 L 405.5 153" fill="none" stroke="#ffffff" stroke-width="6" stroke-linecap="butt" stroke-linejoin="miter"/>
<path d="M 395.5 153 L 400.5 153 L 405.5 153" fill="none" stroke="#c8c8c8" stroke-width="2" stroke-linecap="butt" stroke-linejoin="miter"/>
</g>
<g data-box-drawing="single">
<path d="M 404.5 153 L 409.5 153 L 414.5 153" fill="none" stroke="#00aa00" stroke-width="3" stroke-linecap="butt" stroke-linejoin="miter"/>
</g>
<g data-box-drawing="single">
<path d="M 418.5 143.5 L 418.5 153 L 413.5 153" fill="none" stroke="#00aa00" stroke-width="3" stroke-linecap="butt" stroke-linejoin="miter"/>
</g>
<g id="raster-plane">
</g>
</svg>
